<svg xmlns="http://www.w3.org/2000/svg" width="1906.22" height="324.94" viewBox="0 0 1906.22 324.94">
  <g id="Group_1357" data-name="Group 1357" transform="translate(-14 95.999)">
    <path id="Path_3299" data-name="Path 3299" d="M1461.171,399.9H715.951a107.534,107.534,0,0,1,166.56-56.26,107.876,107.876,0,0,1,77.52-77.4q2.73-.705,5.52-1.26a100.468,100.468,0,0,1,1.58-10.79,103.645,103.645,0,0,1,205.26,20.44c0,1.02,0,1.99-.08,2.97a64.413,64.413,0,0,1,31.29-8.02,65.156,65.156,0,0,1,65.16,65.16,62.768,62.768,0,0,1-1.07,11.64,108.664,108.664,0,0,1,193.48,53.52Z" transform="translate(2636.171 399.897) rotate(180)" fill="#f1edf9" opacity="0.34"/>
    <path id="Path_3300" data-name="Path 3300" d="M1461.171,399.9H715.951a107.534,107.534,0,0,1,166.56-56.26,107.876,107.876,0,0,1,77.52-77.4q2.73-.705,5.52-1.26a100.468,100.468,0,0,1,1.58-10.79,103.645,103.645,0,0,1,205.26,20.44c0,1.02,0,1.99-.08,2.97a64.413,64.413,0,0,1,31.29-8.02,65.156,65.156,0,0,1,65.16,65.16,62.768,62.768,0,0,1-1.07,11.64,108.664,108.664,0,0,1,193.48,53.52Z" transform="translate(1475.171 389.897) rotate(180)" fill="#f1edf9" opacity="0.39"/>
    <path id="Path_3301" data-name="Path 3301" d="M1461.171,399.9H715.951a107.534,107.534,0,0,1,166.56-56.26,107.876,107.876,0,0,1,77.52-77.4q2.73-.705,5.52-1.26a100.468,100.468,0,0,1,1.58-10.79,103.645,103.645,0,0,1,205.26,20.44c0,1.02,0,1.99-.08,2.97a64.413,64.413,0,0,1,31.29-8.02,65.156,65.156,0,0,1,65.16,65.16,62.768,62.768,0,0,1-1.07,11.64,108.664,108.664,0,0,1,193.48,53.52Z" transform="translate(2037.171 303.897) rotate(180)" fill="#d6c1fe" opacity="0.11"/>
  </g>
</svg>
