
        <svg
          xmlns="http://www.w3.org/2000/svg"
          width="1783.22"
          height="319.94"
          viewBox="0 0 1783.22 319.94"
        >
          <path
            id="Path_3295"
            data-name="Path 3295"
            d="M1461.171,399.9H715.951a107.534,107.534,0,0,1,166.56-56.26,107.876,107.876,0,0,1,77.52-77.4q2.73-.705,5.52-1.26a100.468,100.468,0,0,1,1.58-10.79,103.645,103.645,0,0,1,205.26,20.44c0,1.02,0,1.99-.08,2.97a64.413,64.413,0,0,1,31.29-8.02,65.156,65.156,0,0,1,65.16,65.16,62.768,62.768,0,0,1-1.07,11.64,108.664,108.664,0,0,1,193.48,53.52Z"
            transform="translate(322.049 -160.956)"
            fill="#f1edf9"
          />
          <path
            id="Path_3297"
            data-name="Path 3297"
            d="M1461.171,399.9H715.951a107.534,107.534,0,0,1,166.56-56.26,107.876,107.876,0,0,1,77.52-77.4q2.73-.705,5.52-1.26a100.468,100.468,0,0,1,1.58-10.79,103.645,103.645,0,0,1,205.26,20.44c0,1.02,0,1.99-.08,2.97a64.413,64.413,0,0,1,31.29-8.02,65.156,65.156,0,0,1,65.16,65.16,62.768,62.768,0,0,1-1.07,11.64,108.664,108.664,0,0,1,193.48,53.52Z"
            transform="translate(37.049 -79.956)"
            fill="#d6c1fe"
            opacity="0.23"
          />
          <path
            id="Path_3298"
            data-name="Path 3298"
            d="M1461.171,399.9H715.951a107.534,107.534,0,0,1,166.56-56.26,107.876,107.876,0,0,1,77.52-77.4q2.73-.705,5.52-1.26a100.468,100.468,0,0,1,1.58-10.79,103.645,103.645,0,0,1,205.26,20.44c0,1.02,0,1.99-.08,2.97a64.413,64.413,0,0,1,31.29-8.02,65.156,65.156,0,0,1,65.16,65.16,62.768,62.768,0,0,1-1.07,11.64,108.664,108.664,0,0,1,193.48,53.52Z"
            transform="translate(-276.951 -106.956)"
            fill="#d6c1fe"
            opacity="0.19"
          />
          <path
            id="Path_3296"
            data-name="Path 3296"
            d="M1461.171,399.9H715.951a107.534,107.534,0,0,1,166.56-56.26,107.876,107.876,0,0,1,77.52-77.4q2.73-.705,5.52-1.26a100.468,100.468,0,0,1,1.58-10.79,103.645,103.645,0,0,1,205.26,20.44c0,1.02,0,1.99-.08,2.97a64.413,64.413,0,0,1,31.29-8.02,65.156,65.156,0,0,1,65.16,65.16,62.768,62.768,0,0,1-1.07,11.64,108.664,108.664,0,0,1,193.48,53.52Z"
            transform="translate(-715.951 -153.956)"
            fill="#f1edf9"
          />
          <path
            id="Path_3261"
            data-name="Path 3261"
            d="M1461.171,399.9H715.951a107.534,107.534,0,0,1,166.56-56.26,107.876,107.876,0,0,1,77.52-77.4q2.73-.705,5.52-1.26a100.469,100.469,0,0,1,1.58-10.79,103.645,103.645,0,0,1,205.26,20.44c0,1.02,0,1.99-.08,2.97a64.414,64.414,0,0,1,31.29-8.02,65.156,65.156,0,0,1,65.16,65.16,62.768,62.768,0,0,1-1.07,11.64,108.664,108.664,0,0,1,193.48,53.52Z"
            transform="translate(-587.951 -170.956)"
            fill="#611ee6"
          />
          <path
            id="Path_3262"
            data-name="Path 3262"
            d="M1461.171,399.9H715.951a107.534,107.534,0,0,1,166.56-56.26,107.876,107.876,0,0,1,77.52-77.4q2.73-.705,5.52-1.26a100.469,100.469,0,0,1,1.58-10.79,103.645,103.645,0,0,1,205.26,20.44c0,1.02,0,1.99-.08,2.97a64.414,64.414,0,0,1,31.29-8.02,65.156,65.156,0,0,1,65.16,65.16,62.768,62.768,0,0,1-1.07,11.64,108.664,108.664,0,0,1,193.48,53.52Z"
            transform="translate(223.049 -170.956)"
            fill="#611ee6"
          />
        </svg>