<svg xmlns="http://www.w3.org/2000/svg" width="230.49" height="389.347" viewBox="0 0 230.49 389.347">
  <g id="Group_1323" data-name="Group 1323" transform="translate(-149.992 -174.384)">
    <g id="Group_1322" data-name="Group 1322" transform="translate(149.992 174.384)">
      <g id="Group_1320" data-name="Group 1320" transform="translate(1.435 276.516)">
        <path id="Path_3226" data-name="Path 3226" d="M241.348,584.72l-1.3-.734a16.965,16.965,0,0,0-2.311-1.063Q239.51,583.893,241.348,584.72Z" transform="translate(-170.875 -541.449)" fill="#be551d"/>
        <path id="Path_3227" data-name="Path 3227" d="M371.933,617.98a122.179,122.179,0,0,0-9.083-9.48q-2.872-2.72-5.993-5.285a136.4,136.4,0,0,0-23.888-15.746c-.156-.086-.311-.171-.483-.249-1.829-.957-3.7-1.9-5.628-2.787-.179-.093-.335-.164-.506-.249-.654-.3-1.331-.6-1.977-.88-.739-.311-1.463-.607-2.179-.9a.5.5,0,0,1-.093-.031,16.688,16.688,0,0,0-14.851,1.33l-14.443,8.781c7.783-1.288,14.868-5.294,21.852-8.8,4.469-2.246,8.4,4.471,3.928,6.72-8.679,4.361-17.328,9.056-27.141,10.084a58.766,58.766,0,0,1-11.688-.068l-5.4,3.282a17.018,17.018,0,0,1-17.256.28l-13.134-7.412a86.672,86.672,0,0,1-12.792-1.256c-9.449-1.8-17.727-6.18-25.262-12.05a4.258,4.258,0,0,1-.522-.486c-2.36.653-4.577,1.292-6.457,1.877-.529.163-1.035.342-1.526.5-.257.093-.49.172-.732.257a23.81,23.81,0,0,0-2.413.965A130.893,130.893,0,0,0,169.637,601.5c-.008.008-.016.008-.023.016v.008c-2.545,1.993-4.974,4.063-7.309,6.211-.047.047-.109.1-.163.156-.95.88-1.876,1.759-2.787,2.67q-3.981,3.935-7.519,8.149c2.273,1.58,4.585,3.1,6.92,4.577a198.405,198.405,0,0,0,43.6,20.588Q205.745,645,209.193,646q3.4.992,6.842,1.852c2.265.576,4.538,1.113,6.834,1.6a200.931,200.931,0,0,0,86.834-.615c2.3-.521,4.569-1.09,6.834-1.7,2.3-.607,4.569-1.261,6.834-1.961,2.3-.7,4.585-1.448,6.842-2.234A197.619,197.619,0,0,0,369.3,624.4c1.759-1.074,3.495-2.187,5.207-3.316C373.669,620.043,372.812,619,371.933,617.98Z" transform="translate(-151.836 -541.071)" fill="#eaa708"/>
        <path id="Path_3228" data-name="Path 3228" d="M367.456,615.951c-7.854,4.521-19.708,8.413-34.318,11.341q-3.327.676-6.842,1.268v22.4c-2.265.7-4.538,1.354-6.834,1.962-2.265.607-4.538,1.175-6.834,1.7V630.545a388.945,388.945,0,0,1-86.834.272c-2.32-.257-4.6-.545-6.834-.848V653.63q-3.444-.864-6.842-1.852-3.444-1.005-6.834-2.125v-21.9c-18.144-3.44-32.3-8.344-40.218-14.08-.008-.009-.023-.016-.031-.024.039-.054.093-.093.132-.14,2.335-2.148,4.771-4.234,7.332-6.227.016.008.023.016.039.016v.008a111.264,111.264,0,0,0,19.28,6.733c.374.093.747.195,1.129.288.4.1.794.195,1.2.3q2.931.736,6.048,1.4c.054.016.109.023.171.039q2.405.514,4.919.988v-2.934a6.838,6.838,0,0,1,13.676,0v5.154l.724.093c1.012.14,2.039.272,3.067.389a.392.392,0,0,0,.093.016l.195.023c.747.094,1.494.187,2.249.265.171.024.342.047.506.062,1.16.132,2.32.257,3.487.374.584.062,1.175.125,1.767.179s1.183.117,1.775.172l1.284.116c.739.063,1.479.125,2.226.187.553.047,1.1.086,1.658.132h.039c.747.062,1.5.118,2.257.171q1.564.117,3.152.21c.693.047,1.385.086,2.086.125.887.054,1.775.1,2.67.147,1.276.063,2.553.117,3.845.171.989.039,1.977.071,2.973.1q3.2.1,6.46.155c1.09.024,2.179.031,3.277.04s2.187.016,3.292.016q1.869,0,3.723-.02l.689-.005q1.938-.021,3.86-.062l.75-.018q3.938-.088,7.8-.246c.226-.008.444-.016.669-.031.95-.038,1.891-.086,2.833-.132l.887-.047c.646-.031,1.284-.069,1.923-.109.708-.039,1.417-.086,2.117-.132h.031c.794-.047,1.588-.1,2.374-.164,2.218-.148,4.406-.327,6.569-.514.856-.077,1.7-.163,2.545-.241.887-.077,1.767-.171,2.639-.264,1.744-.18,3.471-.381,5.176-.584v-5.729a6.834,6.834,0,0,1,13.668,0v3.744c2.343-.4,4.623-.825,6.842-1.268a147.923,147.923,0,0,0,26.573-7.6l.023.023q3.106,2.57,5.978,5.269C366.3,614.822,366.88,615.382,367.456,615.951Z" transform="translate(-154.762 -546.847)" fill="#a6771e"/>
        <path id="Path_3229" data-name="Path 3229" d="M297.86,532.254h-.008c-.475-.086-.965-.163-1.44-.226-1.121-.186-2.234-.35-3.362-.5h-.008q-7.694-1.109-15.808-1.572h-.008c-3.643-.21-7.348-.319-11.092-.319a192.132,192.132,0,0,0-26.4,1.821h-.008c-.685.078-1.354.172-2.032.288-1.292.171-2.584.381-3.861.607h-.008c-44.981,7.573-77.688,29.313-77.688,42.833,0,5.41,5.262,10.492,14.454,14.882,1.354.654,2.8,1.284,4.328,1.907,1.487.6,3.043,1.175,4.678,1.751.553.187,1.1.374,1.658.553,2.685.887,5.557,1.736,8.593,2.545.125.031.257.07.389.1l.739.187c.4.1.794.195,1.2.3,1.954.483,3.977.95,6.048,1.4a.552.552,0,0,1,.171.039c1.611.335,3.246.662,4.919.981,2.218.428,4.491.817,6.834,1.206,2.226.35,4.514.693,6.842,1.012.241.031.475.062.724.1l.739.093c.763.1,1.541.2,2.327.3a.392.392,0,0,0,.093.016l.195.023c.747.086,1.494.179,2.249.265.171.023.342.047.506.062,1.16.132,2.32.257,3.487.374.584.062,1.175.125,1.767.179s1.183.117,1.775.171l1.284.117c.428.039.856.07,1.292.117l.934.07c.553.047,1.1.086,1.658.132h.039c.747.062,1.5.117,2.257.171q1.564.117,3.152.21c.693.047,1.385.086,2.086.125.887.055,1.775.1,2.67.148,1.276.062,2.553.117,3.845.171.989.039,1.977.07,2.973.1.615.023,1.23.047,1.845.062.739.016,1.471.039,2.218.062.8.008,1.6.023,2.4.031.319.008.638.016.965.016q1.156.023,2.312.023c.171.008.342.008.514.008.942.016,1.884.016,2.841.016,1.228,0,2.442-.016,3.661-.027l.689-.005q1.94-.021,3.86-.062l.75-.018c1.075-.024,2.158-.041,3.222-.075,1.533-.047,3.059-.109,4.577-.171.226-.008.444-.016.669-.031.654-.023,1.3-.055,1.954-.086l.88-.047.887-.047c.646-.031,1.284-.07,1.923-.109l1.284-.07c.28-.023.553-.039.833-.062h.031c.794-.047,1.588-.1,2.374-.164,2.218-.148,4.406-.327,6.569-.514.856-.078,1.7-.163,2.545-.241.887-.078,1.767-.171,2.639-.265q6.2-.642,12.01-1.479c4.779-.693,9.348-1.471,13.676-2.343a147.5,147.5,0,0,0,26.6-7.6c.016-.008.039-.008.047-.016,11.574-4.756,18.315-10.461,18.315-16.595C376.124,561.615,343.145,539.75,297.86,532.254Z" transform="translate(-152.789 -529.639)" fill="#ffbf00"/>
        <path id="Path_3230" data-name="Path 3230" d="M239.2,614.113v41.121c-2.3-.49-4.569-1.027-6.834-1.6q-3.444-.864-6.842-1.852V614.113a6.838,6.838,0,1,1,13.676,0Z" transform="translate(-168.169 -546.847)" fill="#fff"/>
        <path id="Path_3231" data-name="Path 3231" d="M377.112,614.113v34.614c-2.257.786-4.546,1.533-6.842,2.234-2.265.7-4.538,1.354-6.834,1.962v-38.81a6.838,6.838,0,0,1,13.676,0Z" transform="translate(-198.735 -546.847)" fill="#fff"/>
      </g>
      <path id="Path_3232" data-name="Path 3232" d="M255.039,572.817c8.656,1.378,17.467.629,26.158,1.8,9.617,1.293,19.313,3.706,29.08,2.931,7.64-.606,14.571-4.069,21.326-7.518a56.015,56.015,0,0,1-5.185-2.165,22.055,22.055,0,0,1-11.839-12.687,15.588,15.588,0,0,1-.841-5.293v-.062c-.109-5.129,1.059-11.815,1.837-18.1v-.008c.95-7.636,1.331-14.664-1.8-17.575-3.355-3.121-34.069-1.572-42.343-.35a11.184,11.184,0,0,0-1.743.35c-15.349,5.145-12.7-.786-12.392,19,.023,1.082.031,2.234.031,3.471,0,2.693.265,5.729.451,8.811v.016c.374,6.608.366,13.466-3.471,17.918-1.463,1.681-4.717,3.292-8.78,4.81-.915.343-1.877.68-2.862,1.014A49.892,49.892,0,0,0,255.039,572.817Z" transform="translate(-170.533 -249.279)" fill="#fabaae"/>
      <path id="Path_3233" data-name="Path 3233" d="M366.441,296.272v65.322c0,48.727-38.784,64.331-67.054,89.114a43.507,43.507,0,0,1-57.961,0c-28.269-24.783-67.053-40.388-67.053-89.114V296.272c0-47.92,35.7-86.994,80.4-88.921,1.152-.065,2.314-.086,3.476-.086h24.321C328.884,207.266,366.441,247.115,366.441,296.272Z" transform="translate(-155.396 -181.672)" fill="#fabaae"/>
      <path id="Path_3234" data-name="Path 3234" d="M207.531,361.6V296.272c0-46.643,33.811-84.921,76.864-88.688-2.311-.219-4.643-.318-7.008-.318H253.08c-46.326,0-83.871,39.854-83.871,89.005v32.335a19.218,19.218,0,1,0,0,38.435c.063,0,.124-.009.187-.009,2.786,44.479,39.667,59.848,66.855,83.667a43.364,43.364,0,0,0,48.144,6.569,44.724,44.724,0,0,1-9.821-6.569C246.3,425.932,207.531,410.319,207.531,361.6Z" transform="translate(-149.992 -181.672)" fill="#f6a195"/>
      <circle id="Ellipse_8" data-name="Ellipse 8" cx="19.217" cy="19.217" r="19.217" transform="translate(192.056 146.935)" fill="#fabaae"/>
      <path id="Path_3235" data-name="Path 3235" d="M207.865,352.23s24.225-13.5,45.143,0" transform="translate(-162.819 -212.473)" fill="none" stroke="#5d401d" stroke-linecap="round" stroke-miterlimit="10" stroke-width="7"/>
      <g id="Group_1321" data-name="Group 1321" transform="translate(36.4 144.245)">
        <path id="Path_3236" data-name="Path 3236" d="M258.187,376V390.6a16.289,16.289,0,0,1-16.294,16.284H213.051A16.3,16.3,0,0,1,196.757,390.6V376A16.3,16.3,0,0,1,213.051,359.7h28.841a16.043,16.043,0,0,1,5.259.87A16.3,16.3,0,0,1,258.187,376Z" transform="translate(-196.757 -359.703)" fill="#c7ebfc"/>
        <path id="Path_3237" data-name="Path 3237" d="M233.169,359.7l-17.34,47.186h-1.263a16.2,16.2,0,0,1-10.973-4.255L219.38,359.7Z" transform="translate(-198.272 -359.703)" fill="#fff"/>
        <path id="Path_3238" data-name="Path 3238" d="M254.117,360.573,237.1,406.889h-8.913l17.35-47.186h3.323A16.043,16.043,0,0,1,254.117,360.573Z" transform="translate(-203.723 -359.703)" fill="#fff"/>
        <path id="Path_3239" data-name="Path 3239" d="M381.426,376V390.6a16.29,16.29,0,0,1-16.294,16.284H336.29A16.305,16.305,0,0,1,319.995,390.6V376A16.3,16.3,0,0,1,336.29,359.7h28.841a16.046,16.046,0,0,1,5.259.87A16.3,16.3,0,0,1,381.426,376Z" transform="translate(-224.071 -359.703)" fill="#c7ebfc"/>
        <path id="Path_3240" data-name="Path 3240" d="M356.408,359.7l-17.34,47.186h-1.263a16.2,16.2,0,0,1-10.973-4.255L342.619,359.7Z" transform="translate(-225.587 -359.703)" fill="#fff"/>
        <path id="Path_3241" data-name="Path 3241" d="M377.356,360.573l-17.019,46.316h-8.914l17.35-47.186H372.1A16.046,16.046,0,0,1,377.356,360.573Z" transform="translate(-231.037 -359.703)" fill="#fff"/>
        <rect id="Rectangle_115" data-name="Rectangle 115" width="61.423" height="45.346" rx="12.409" transform="translate(0.003 0)" fill="none" stroke="#1b1d2f" stroke-linecap="round" stroke-miterlimit="10" stroke-width="7"/>
        <rect id="Rectangle_116" data-name="Rectangle 116" width="61.423" height="45.346" rx="12.409" transform="translate(95.927 0)" fill="none" stroke="#1b1d2f" stroke-linecap="round" stroke-miterlimit="10" stroke-width="7"/>
        <line id="Line_3" data-name="Line 3" x2="34.501" transform="translate(61.426 9.659)" fill="none" stroke="#1b1d2f" stroke-linecap="round" stroke-miterlimit="10" stroke-width="7"/>
      </g>
      <ellipse id="Ellipse_9" data-name="Ellipse 9" cx="8.029" cy="11.557" rx="8.029" ry="11.557" transform="translate(59.266 152.278)" fill="#1b1d2f"/>
      <path id="Path_3242" data-name="Path 3242" d="M327.773,338.9s24.225-21.554,45.143,0" transform="translate(-189.395 -208.725)" fill="none" stroke="#5d401d" stroke-linecap="round" stroke-miterlimit="10" stroke-width="7"/>
      <ellipse id="Ellipse_10" data-name="Ellipse 10" cx="8.029" cy="11.557" rx="8.029" ry="11.557" transform="translate(152.597 152.278)" fill="#1b1d2f"/>
      <rect id="Rectangle_117" data-name="Rectangle 117" width="27.92" height="10.584" rx="5.292" transform="translate(101.051 185.37)" fill="#f6a195"/>
      <path id="Path_3243" data-name="Path 3243" d="M217.694,372.822s13.869-8.76,29.2,0" transform="translate(-164.997 -217.503)" fill="none" stroke="#1b1d2f" stroke-linecap="round" stroke-miterlimit="10" stroke-width="7"/>
      <path id="Path_3244" data-name="Path 3244" d="M337.6,372.822s13.869-8.76,29.2,0" transform="translate(-191.574 -217.503)" fill="none" stroke="#1b1d2f" stroke-linecap="round" stroke-miterlimit="10" stroke-width="7"/>
      <path id="Path_3245" data-name="Path 3245" d="M173.211,378.028a7.644,7.644,0,0,0,0,15.289Z" transform="translate(-153.444 -219.52)" fill="#f07877"/>
      <path id="Path_3246" data-name="Path 3246" d="M421.428,393.317a7.644,7.644,0,0,0,0-15.289Z" transform="translate(-210.153 -219.52)" fill="#f6a195"/>
      <path id="Path_3247" data-name="Path 3247" d="M268.577,451.231a1.889,1.889,0,0,0-1.882,2.04c1.028,12.646,11.458,24.367,24.173,24.367h0c12.715,0,23.145-11.721,24.173-24.367a1.889,1.889,0,0,0-1.882-2.04Z" transform="translate(-175.857 -235.745)" fill="#fff"/>
      <path id="Path_3248" data-name="Path 3248" d="M360.819,245.751s1.681-28.11-18.035-46.653l-2.9,11.033s-13.278-29.576-43.254-33.958l1.082,9.311s-39.066-16.431-70.389-9.311l15.464,11.5s-29.866.942-46.816,11.425c0,0,8.2,6.561,12.328,11.907-25.772,16.9-42.948,47.155-42.948,81.664l7.022,35.616,11.919-53.729s3.714-36.169,33.936-42.15c10.746-2.126,21.786.914,30.507,7.542a32.278,32.278,0,0,0,18.246,6.882v.034c.181,0,.363-.012.545-.012s.352.012.545.012v-.034a32.253,32.253,0,0,0,18.231-6.879c8.724-6.628,19.764-9.672,30.513-7.545,30.221,5.982,33.935,42.15,33.935,42.15l14.4,55.847.936-9.191,6.273-28.543A100.072,100.072,0,0,0,360.819,245.751Z" transform="translate(-153.396 -174.384)" fill="#724f2d"/>
      <path id="Path_3249" data-name="Path 3249" d="M348.69,196.544c.6,6.807-.09,16.668-7.036,24.1a1.74,1.74,0,0,0,1.378,2.938c4.606-.323,11.359-1.279,15.088-4.07a1.747,1.747,0,0,1,2.7.725,21.83,21.83,0,0,1,1.6,10.164,1.74,1.74,0,0,0,3.093,1.279c3.332-4.072,6.131-11.334,1.979-23.455a1.743,1.743,0,0,0-3.051-.459l-.643.876a1.741,1.741,0,0,1-2.836-.041l-9.1-13.187A1.739,1.739,0,0,0,348.69,196.544Z" transform="translate(-192.365 -178.876)" fill="#815d3b"/>
    </g>
  </g>
</svg>
