<?xml version="1.0" encoding="utf-8"?>
<!-- Generator: Adobe Illustrator 25.2.0, SVG Export Plug-In . SVG Version: 6.00 Build 0)  -->
<svg version="1.1" id="Layer_1" xmlns="http://www.w3.org/2000/svg" xmlns:xlink="http://www.w3.org/1999/xlink" x="0px" y="0px"
	 viewBox="0 0 1344.59 667.88" style="enable-background:new 0 0 1344.59 667.88;" xml:space="preserve">
<style type="text/css">
	.st0{fill:url(#SVGID_1_);}
	.st1{fill:url(#SVGID_2_);}
	.st2{fill:url(#SVGID_3_);}
	.st3{fill:url(#SVGID_4_);}
	.st4{fill:url(#SVGID_5_);}
	.st5{fill:url(#SVGID_6_);}
	.st6{fill:url(#SVGID_7_);}
	.st7{fill:url(#SVGID_8_);}
	.st8{fill:url(#SVGID_9_);}
	.st9{fill:url(#SVGID_10_);}
	.st10{fill:url(#SVGID_11_);}
	.st11{fill:url(#SVGID_12_);}
	.st12{fill:url(#SVGID_13_);}
	.st13{fill:url(#SVGID_14_);}
	.st14{fill:url(#SVGID_15_);}
	.st15{fill:url(#SVGID_16_);}
	.st16{fill:url(#SVGID_17_);}
	.st17{fill:url(#SVGID_18_);}
	.st18{fill:url(#SVGID_19_);}
	.st19{fill:url(#SVGID_20_);}
	.st20{fill:url(#SVGID_21_);}
	.st21{fill:url(#SVGID_22_);}
	.st22{fill:url(#SVGID_23_);}
	.st23{fill:url(#SVGID_24_);}
	.st24{fill:url(#SVGID_25_);}
	.st25{fill:url(#SVGID_26_);}
	.st26{fill:url(#SVGID_27_);}
	.st27{fill:url(#SVGID_28_);}
	.st28{fill:url(#SVGID_29_);}
	.st29{fill:url(#SVGID_30_);}
	.st30{fill:url(#SVGID_31_);}
	.st31{fill:url(#SVGID_32_);}
	.st32{fill:url(#SVGID_33_);}
	.st33{fill:url(#SVGID_34_);}
	.st34{fill:url(#SVGID_35_);}
	.st35{fill:url(#SVGID_36_);}
	.st36{fill:url(#SVGID_37_);}
	.st37{fill:url(#SVGID_38_);}
	.st38{fill:url(#SVGID_39_);}
	.st39{fill:url(#SVGID_40_);}
	.st40{fill:url(#SVGID_41_);}
	.st41{fill:url(#SVGID_42_);}
	.st42{fill:url(#SVGID_43_);}
	.st43{fill:url(#SVGID_44_);}
	.st44{fill:url(#SVGID_45_);}
	.st45{fill:url(#SVGID_46_);}
	.st46{fill:url(#SVGID_47_);}
	.st47{fill:url(#SVGID_48_);}
	.st48{fill:url(#SVGID_49_);}
	.st49{fill:url(#SVGID_50_);}
	.st50{fill:url(#SVGID_51_);}
	.st51{fill:url(#SVGID_52_);}
	.st52{fill:url(#SVGID_53_);}
	.st53{fill:url(#SVGID_54_);}
	.st54{fill:url(#SVGID_55_);}
	.st55{fill:url(#SVGID_56_);}
	.st56{fill:url(#SVGID_57_);}
	.st57{fill:url(#SVGID_58_);}
	.st58{fill:url(#SVGID_59_);}
	.st59{fill:url(#SVGID_60_);}
	.st60{fill:url(#SVGID_61_);}
	.st61{fill:url(#SVGID_62_);}
	.st62{fill:url(#SVGID_63_);}
	.st63{fill:url(#SVGID_64_);}
	.st64{fill:url(#SVGID_65_);}
	.st65{fill:url(#SVGID_66_);}
	.st66{fill:url(#SVGID_67_);}
	.st67{fill:url(#SVGID_68_);}
	.st68{fill:url(#SVGID_69_);}
	.st69{fill:url(#SVGID_70_);}
	.st70{fill:url(#SVGID_71_);}
	.st71{fill:url(#SVGID_72_);}
	.st72{fill:url(#SVGID_73_);}
	.st73{fill:url(#SVGID_74_);}
	.st74{fill:url(#SVGID_75_);}
	.st75{fill:url(#SVGID_76_);}
	.st76{fill:url(#SVGID_77_);}
	.st77{fill:url(#SVGID_78_);}
	.st78{fill:url(#SVGID_79_);}
	.st79{fill:url(#SVGID_80_);}
	.st80{fill:url(#SVGID_81_);}
	.st81{fill:url(#SVGID_82_);}
	.st82{fill:url(#SVGID_83_);}
	.st83{fill:url(#SVGID_84_);}
	.st84{fill:url(#SVGID_85_);}
	.st85{fill:url(#SVGID_86_);}
	.st86{fill:url(#SVGID_87_);}
	.st87{fill:url(#SVGID_88_);}
	.st88{fill:url(#SVGID_89_);}
	.st89{fill:url(#SVGID_90_);}
</style>
<g>
	<linearGradient id="SVGID_1_" gradientUnits="userSpaceOnUse" x1="672.2831" y1="16.324" x2="672.2831" y2="653.6591">
		<stop  offset="0" style="stop-color:#EEF2EF"/>
		<stop  offset="1" style="stop-color:#F2F6F6"/>
	</linearGradient>
	<path class="st0" d="M1297.22,597.79c-12.24-4.52-19.87-16.27-18.92-28.78c1.47-19.36-0.32-49.63-15.77-87.96
		c-22.53-55.9-75.01-78.61-109.74-87.7c-15.1-3.95-24.67-18.18-21.89-32.91c3.64-19.22,3.48-50.22-11.4-97.59
		c-21.37-68.05-103.38-82.66-149.08-85.41c-16.09-0.97-28.54-13.79-28.31-29.21c0.69-45.83-15.67-130.14-144.95-131.87
		C650.53,14.4,612.59,99.05,603.81,128.69v0c-0.72,2.42-3.57,3.59-5.9,2.43c-24.28-12.12-51.89-18.97-81.18-18.97
		c-97.08,0-175.79,75.27-175.79,168.11c0,6.83,0.44,13.55,1.26,20.17c0,0.02-0.01,0.03-0.02,0.04c-9.22,4.52-20.3,4.17-29.34-0.97
		c-26.37-15.01-84.52-35.67-149.69,20.53c-88.85,76.62,40.66,209.99-46.69,212.87C30.09,535.75,12.93,651.06,12.56,653.62
		c0,0.02,0.02,0.04,0.04,0.04h624.94c0,0,688.35,0,694.23,0c0.02,0,0.04-0.02,0.04-0.04
		C1334.19,618.92,1314.34,604.11,1297.22,597.79z"/>
	<linearGradient id="SVGID_2_" gradientUnits="userSpaceOnUse" x1="758.3401" y1="190.1075" x2="758.3401" y2="224.9544">
		<stop  offset="0" style="stop-color:#8C8CED"/>
		<stop  offset="1" style="stop-color:#7389ED"/>
	</linearGradient>
	<path class="st1" d="M826.61,224.95H690.07c0-9.62,3.91-18.34,10.21-24.64c6.3-6.3,15.02-10.21,24.64-10.21h66.83
		C811.01,190.11,826.61,205.71,826.61,224.95z"/>
	<linearGradient id="SVGID_3_" gradientUnits="userSpaceOnUse" x1="747.5063" y1="190.1075" x2="747.5063" y2="224.9544">
		<stop  offset="0" style="stop-color:#8C86ED"/>
		<stop  offset="1" style="stop-color:#6476ED"/>
	</linearGradient>
	<path class="st2" d="M804.94,215.79l-32.12,9.16h-82.75c0-9.62,3.91-18.34,10.21-24.64c6.3-6.3,15.02-10.21,24.64-10.21
		c0,0-10.08,1.83-19.03,17.43L804.94,215.79z"/>
	<linearGradient id="SVGID_4_" gradientUnits="userSpaceOnUse" x1="365.1663" y1="243.506" x2="907.6675" y2="243.506">
		<stop  offset="0" style="stop-color:#FF6599"/>
		<stop  offset="0.9988" style="stop-color:#FF6E78"/>
	</linearGradient>
	<path class="st3" d="M907.67,241.79v29.43h-542.5v-29.43c0-14.36,11.64-26,26-26h490.5C896.03,215.79,907.67,227.43,907.67,241.79z
		"/>
	<linearGradient id="SVGID_5_" gradientUnits="userSpaceOnUse" x1="342.5959" y1="639.6478" x2="930.2379" y2="639.6478">
		<stop  offset="0" style="stop-color:#3F76FF"/>
		<stop  offset="1" style="stop-color:#3F76FF"/>
	</linearGradient>
	<rect x="342.6" y="625.64" class="st4" width="587.64" height="28.02"/>
	<linearGradient id="SVGID_6_" gradientUnits="userSpaceOnUse" x1="342.5959" y1="543.8591" x2="930.2379" y2="543.8591">
		<stop  offset="0" style="stop-color:#3F76FF"/>
		<stop  offset="1" style="stop-color:#3F76FF"/>
	</linearGradient>
	<rect x="342.6" y="521.58" class="st5" width="587.64" height="44.56"/>
	<linearGradient id="SVGID_7_" gradientUnits="userSpaceOnUse" x1="342.5959" y1="399.666" x2="930.2379" y2="399.666">
		<stop  offset="0" style="stop-color:#3F76FF"/>
		<stop  offset="1" style="stop-color:#3F76FF"/>
	</linearGradient>
	<rect x="342.6" y="320.37" class="st6" width="587.64" height="158.59"/>
	<linearGradient id="SVGID_8_" gradientUnits="userSpaceOnUse" x1="332.0527" y1="445.2141" x2="940.7811" y2="445.2141">
		<stop  offset="0" style="stop-color:#FF569F"/>
		<stop  offset="0.9988" style="stop-color:#FF4D80"/>
	</linearGradient>
	<path class="st7" d="M940.78,445.22c0,3.21-1.29,6.11-3.4,8.2c-2.1,2.1-5.01,3.4-8.21,3.4H343.66c-6.41,0-11.61-5.19-11.61-11.6
		c0-1.06,0.14-2.08,0.4-3.05c0.54-1.98,1.58-3.74,3-5.16c2.1-2.1,5.01-3.4,8.21-3.4h585.51c5.35,0,9.86,3.63,11.21,8.56
		C940.64,443.14,940.78,444.16,940.78,445.22z"/>
	<linearGradient id="SVGID_9_" gradientUnits="userSpaceOnUse" x1="332.0527" y1="412.1968" x2="940.7811" y2="412.1968">
		<stop  offset="0" style="stop-color:#86B1FF"/>
		<stop  offset="1" style="stop-color:#7AA1FF"/>
	</linearGradient>
	<path class="st8" d="M940.78,412.2c0,3.21-1.29,6.11-3.4,8.2c-2.1,2.1-5.01,3.4-8.21,3.4H343.66c-6.41,0-11.61-5.19-11.61-11.6
		c0-1.06,0.14-2.08,0.4-3.05c0.54-1.98,1.58-3.74,3-5.16c2.1-2.1,5.01-3.4,8.21-3.4h585.51c5.35,0,9.86,3.63,11.21,8.56
		C940.64,410.13,940.78,411.14,940.78,412.2z"/>
	<linearGradient id="SVGID_10_" gradientUnits="userSpaceOnUse" x1="332.0527" y1="379.1795" x2="940.7811" y2="379.1795">
		<stop  offset="0" style="stop-color:#FF569F"/>
		<stop  offset="0.9988" style="stop-color:#FF4D80"/>
	</linearGradient>
	<path class="st9" d="M940.78,379.19c0,3.21-1.29,6.11-3.4,8.2c-2.1,2.1-5.01,3.4-8.21,3.4H343.66c-6.41,0-11.61-5.19-11.61-11.6
		c0-1.06,0.14-2.08,0.4-3.05c0.54-1.98,1.58-3.74,3-5.16c2.1-2.1,5.01-3.4,8.21-3.4h585.51c5.35,0,9.86,3.63,11.21,8.56
		C940.64,377.11,940.78,378.13,940.78,379.19z"/>
	<linearGradient id="SVGID_11_" gradientUnits="userSpaceOnUse" x1="332.0527" y1="346.1623" x2="940.7811" y2="346.1623">
		<stop  offset="0" style="stop-color:#86B1FF"/>
		<stop  offset="1" style="stop-color:#7AA1FF"/>
	</linearGradient>
	<path class="st10" d="M940.78,346.17c0,3.21-1.29,6.11-3.4,8.2c-2.1,2.1-5.01,3.4-8.21,3.4H343.66c-6.41,0-11.61-5.19-11.61-11.6
		c0-1.06,0.14-2.08,0.4-3.05c0.54-1.98,1.58-3.74,3-5.16c2.1-2.1,5.01-3.4,8.21-3.4h585.51c5.35,0,9.86,3.63,11.21,8.56
		C940.64,344.09,940.78,345.11,940.78,346.17z"/>
	<linearGradient id="SVGID_12_" gradientUnits="userSpaceOnUse" x1="332.4516" y1="442.1669" x2="940.3822" y2="442.1669">
		<stop  offset="0" style="stop-color:#FF6599"/>
		<stop  offset="0.9988" style="stop-color:#FF6E78"/>
	</linearGradient>
	<path class="st11" d="M940.38,442.17c-0.54,1.98-1.58,3.74-3,5.16c-2.1,2.1-5.01,3.4-8.21,3.4H343.66c-5.35,0-9.86-3.63-11.21-8.56
		c0.54-1.98,1.58-3.74,3-5.16c2.1-2.1,5.01-3.4,8.21-3.4h585.51C934.52,433.61,939.03,437.24,940.38,442.17z"/>
	<linearGradient id="SVGID_13_" gradientUnits="userSpaceOnUse" x1="332.4516" y1="409.1496" x2="940.3822" y2="409.1496">
		<stop  offset="0" style="stop-color:#94B9FF"/>
		<stop  offset="1" style="stop-color:#7FB6FF"/>
	</linearGradient>
	<path class="st12" d="M940.38,409.15c-0.54,1.98-1.58,3.74-3,5.16c-2.1,2.1-5.01,3.4-8.21,3.4H343.66c-5.35,0-9.86-3.63-11.21-8.56
		c0.54-1.98,1.58-3.74,3-5.16c2.1-2.1,5.01-3.4,8.21-3.4h585.51C934.52,400.59,939.03,404.22,940.38,409.15z"/>
	<linearGradient id="SVGID_14_" gradientUnits="userSpaceOnUse" x1="332.4516" y1="376.1323" x2="940.3822" y2="376.1323">
		<stop  offset="0" style="stop-color:#FF6599"/>
		<stop  offset="0.9988" style="stop-color:#FF6E78"/>
	</linearGradient>
	<path class="st13" d="M940.38,376.13c-0.54,1.98-1.58,3.74-3,5.16c-2.1,2.1-5.01,3.4-8.21,3.4H343.66c-5.35,0-9.86-3.63-11.21-8.56
		c0.54-1.98,1.58-3.74,3-5.16c2.1-2.1,5.01-3.4,8.21-3.4h585.51C934.52,367.58,939.03,371.21,940.38,376.13z"/>
	<linearGradient id="SVGID_15_" gradientUnits="userSpaceOnUse" x1="332.4516" y1="343.1151" x2="940.3822" y2="343.1151">
		<stop  offset="0" style="stop-color:#94B9FF"/>
		<stop  offset="1" style="stop-color:#7FB6FF"/>
	</linearGradient>
	<path class="st14" d="M940.38,343.12c-0.54,1.98-1.58,3.74-3,5.16c-2.1,2.1-5.01,3.4-8.21,3.4H343.66c-5.35,0-9.86-3.63-11.21-8.56
		c0.54-1.98,1.58-3.74,3-5.16c2.1-2.1,5.01-3.4,8.21-3.4h585.51C934.52,334.56,939.03,338.19,940.38,343.12z"/>
	<linearGradient id="SVGID_16_" gradientUnits="userSpaceOnUse" x1="458.3433" y1="413.9186" x2="814.4905" y2="770.0657">
		<stop  offset="0" style="stop-color:#86B1FF"/>
		<stop  offset="1" style="stop-color:#7AA1FF"/>
	</linearGradient>
	<path class="st15" d="M961.84,563.34v57.3c0,2.77-2.23,4.99-4.99,4.99H315.98c-2.77,0-4.99-2.23-4.99-4.99v-57.3
		c0-2.75,2.23-4.99,4.99-4.99h640.87C959.61,558.35,961.84,560.59,961.84,563.34z"/>
	<linearGradient id="SVGID_17_" gradientUnits="userSpaceOnUse" x1="461.1532" y1="411.1087" x2="811.6806" y2="761.636">
		<stop  offset="0" style="stop-color:#94B9FF"/>
		<stop  offset="1" style="stop-color:#7FB6FF"/>
	</linearGradient>
	<path class="st16" d="M961.84,563.34v46.06c0,2.77-2.23,4.99-4.99,4.99H315.98c-2.77,0-4.99-2.23-4.99-4.99v-46.06
		c0-2.75,2.23-4.99,4.99-4.99h640.87C959.61,558.35,961.84,560.59,961.84,563.34z"/>
	<linearGradient id="SVGID_18_" gradientUnits="userSpaceOnUse" x1="331.9243" y1="591.9927" x2="364.0244" y2="591.9927">
		<stop  offset="0" style="stop-color:#9D91ED"/>
		<stop  offset="1" style="stop-color:#7389ED"/>
	</linearGradient>
	<circle class="st17" cx="347.97" cy="591.99" r="16.05"/>
	<linearGradient id="SVGID_19_" gradientUnits="userSpaceOnUse" x1="336.6252" y1="591.9927" x2="359.3235" y2="591.9927">
		<stop  offset="0" style="stop-color:#3F76FF"/>
		<stop  offset="1" style="stop-color:#3F76FF"/>
	</linearGradient>
	<circle class="st18" cx="347.97" cy="591.99" r="11.35"/>
	<linearGradient id="SVGID_20_" gradientUnits="userSpaceOnUse" x1="384.6203" y1="591.9927" x2="416.7204" y2="591.9927">
		<stop  offset="0" style="stop-color:#9D91ED"/>
		<stop  offset="1" style="stop-color:#7389ED"/>
	</linearGradient>
	<circle class="st19" cx="400.67" cy="591.99" r="16.05"/>
	<linearGradient id="SVGID_21_" gradientUnits="userSpaceOnUse" x1="389.3213" y1="591.9927" x2="412.0195" y2="591.9927">
		<stop  offset="0" style="stop-color:#3F76FF"/>
		<stop  offset="1" style="stop-color:#3F76FF"/>
	</linearGradient>
	<circle class="st20" cx="400.67" cy="591.99" r="11.35"/>
	<linearGradient id="SVGID_22_" gradientUnits="userSpaceOnUse" x1="437.3163" y1="591.9927" x2="469.4164" y2="591.9927">
		<stop  offset="0" style="stop-color:#9D91ED"/>
		<stop  offset="1" style="stop-color:#7389ED"/>
	</linearGradient>
	<circle class="st21" cx="453.37" cy="591.99" r="16.05"/>
	<linearGradient id="SVGID_23_" gradientUnits="userSpaceOnUse" x1="442.0173" y1="591.9927" x2="464.7155" y2="591.9927">
		<stop  offset="0" style="stop-color:#3F76FF"/>
		<stop  offset="1" style="stop-color:#3F76FF"/>
	</linearGradient>
	<circle class="st22" cx="453.37" cy="591.99" r="11.35"/>
	<linearGradient id="SVGID_24_" gradientUnits="userSpaceOnUse" x1="502.9721" y1="591.9927" x2="530.4865" y2="591.9927">
		<stop  offset="0" style="stop-color:#E8EFEF"/>
		<stop  offset="1" style="stop-color:#ECF1F6"/>
	</linearGradient>
	<path class="st23" d="M524.7,597.78h-15.94c-3.2,0-5.79-2.59-5.79-5.79l0,0c0-3.2,2.59-5.79,5.79-5.79h15.94
		c3.2,0,5.79,2.59,5.79,5.79l0,0C530.49,595.19,527.9,597.78,524.7,597.78z"/>
	<linearGradient id="SVGID_25_" gradientUnits="userSpaceOnUse" x1="544.2437" y1="591.9927" x2="571.7581" y2="591.9927">
		<stop  offset="0" style="stop-color:#E8EFEF"/>
		<stop  offset="1" style="stop-color:#ECF1F6"/>
	</linearGradient>
	<path class="st24" d="M565.97,597.78h-15.94c-3.2,0-5.79-2.59-5.79-5.79l0,0c0-3.2,2.59-5.79,5.79-5.79h15.94
		c3.2,0,5.79,2.59,5.79,5.79l0,0C571.76,595.19,569.17,597.78,565.97,597.78z"/>
	<linearGradient id="SVGID_26_" gradientUnits="userSpaceOnUse" x1="585.5153" y1="591.9927" x2="613.0297" y2="591.9927">
		<stop  offset="0" style="stop-color:#E8EFEF"/>
		<stop  offset="1" style="stop-color:#ECF1F6"/>
	</linearGradient>
	<path class="st25" d="M607.24,597.78H591.3c-3.2,0-5.79-2.59-5.79-5.79l0,0c0-3.2,2.59-5.79,5.79-5.79h15.94
		c3.2,0,5.79,2.59,5.79,5.79l0,0C613.03,595.19,610.44,597.78,607.24,597.78z"/>
	<linearGradient id="SVGID_27_" gradientUnits="userSpaceOnUse" x1="626.7869" y1="591.9927" x2="654.3013" y2="591.9927">
		<stop  offset="0" style="stop-color:#E8EFEF"/>
		<stop  offset="1" style="stop-color:#ECF1F6"/>
	</linearGradient>
	<path class="st26" d="M648.51,597.78h-15.94c-3.2,0-5.79-2.59-5.79-5.79l0,0c0-3.2,2.59-5.79,5.79-5.79h15.94
		c3.2,0,5.79,2.59,5.79,5.79l0,0C654.3,595.19,651.71,597.78,648.51,597.78z"/>
	<linearGradient id="SVGID_28_" gradientUnits="userSpaceOnUse" x1="668.0585" y1="591.9927" x2="695.5729" y2="591.9927">
		<stop  offset="0" style="stop-color:#E8EFEF"/>
		<stop  offset="1" style="stop-color:#ECF1F6"/>
	</linearGradient>
	<path class="st27" d="M689.79,597.78h-15.94c-3.2,0-5.79-2.59-5.79-5.79l0,0c0-3.2,2.59-5.79,5.79-5.79h15.94
		c3.2,0,5.79,2.59,5.79,5.79l0,0C695.57,595.19,692.98,597.78,689.79,597.78z"/>
	<linearGradient id="SVGID_29_" gradientUnits="userSpaceOnUse" x1="709.3301" y1="591.9927" x2="736.8444" y2="591.9927">
		<stop  offset="0" style="stop-color:#E8EFEF"/>
		<stop  offset="1" style="stop-color:#ECF1F6"/>
	</linearGradient>
	<path class="st28" d="M731.06,597.78h-15.94c-3.2,0-5.79-2.59-5.79-5.79l0,0c0-3.2,2.59-5.79,5.79-5.79h15.94
		c3.2,0,5.79,2.59,5.79,5.79l0,0C736.84,595.19,734.25,597.78,731.06,597.78z"/>
	<linearGradient id="SVGID_30_" gradientUnits="userSpaceOnUse" x1="754.041" y1="591.9927" x2="769.1752" y2="591.9927">
		<stop  offset="0" style="stop-color:#E8EFEF"/>
		<stop  offset="1" style="stop-color:#ECF1F6"/>
	</linearGradient>
	<path class="st29" d="M766.63,603.34h-10.04c-1.41,0-2.55-1.14-2.55-2.55v-17.6c0-1.41,1.14-2.55,2.55-2.55h10.04
		c1.41,0,2.55,1.14,2.55,2.55v17.6C769.18,602.2,768.03,603.34,766.63,603.34z"/>
	<linearGradient id="SVGID_31_" gradientUnits="userSpaceOnUse" x1="775.7072" y1="591.9927" x2="790.8414" y2="591.9927">
		<stop  offset="0" style="stop-color:#E8EFEF"/>
		<stop  offset="1" style="stop-color:#ECF1F6"/>
	</linearGradient>
	<path class="st30" d="M788.29,603.34h-10.04c-1.41,0-2.55-1.14-2.55-2.55v-17.6c0-1.41,1.14-2.55,2.55-2.55h10.04
		c1.41,0,2.55,1.14,2.55,2.55v17.6C790.84,602.2,789.7,603.34,788.29,603.34z"/>
	<linearGradient id="SVGID_32_" gradientUnits="userSpaceOnUse" x1="797.3734" y1="591.9927" x2="812.5077" y2="591.9927">
		<stop  offset="0" style="stop-color:#E8EFEF"/>
		<stop  offset="1" style="stop-color:#ECF1F6"/>
	</linearGradient>
	<path class="st31" d="M809.96,603.34h-10.04c-1.41,0-2.55-1.14-2.55-2.55v-17.6c0-1.41,1.14-2.55,2.55-2.55h10.04
		c1.41,0,2.55,1.14,2.55,2.55v17.6C812.51,602.2,811.37,603.34,809.96,603.34z"/>
	<linearGradient id="SVGID_33_" gradientUnits="userSpaceOnUse" x1="819.0397" y1="591.9927" x2="834.174" y2="591.9927">
		<stop  offset="0" style="stop-color:#E8EFEF"/>
		<stop  offset="1" style="stop-color:#ECF1F6"/>
	</linearGradient>
	<path class="st32" d="M831.63,603.34h-10.04c-1.41,0-2.55-1.14-2.55-2.55v-17.6c0-1.41,1.14-2.55,2.55-2.55h10.04
		c1.41,0,2.55,1.14,2.55,2.55v17.6C834.17,602.2,833.03,603.34,831.63,603.34z"/>
	<linearGradient id="SVGID_34_" gradientUnits="userSpaceOnUse" x1="453.3636" y1="243.506" x2="907.6675" y2="243.506">
		<stop  offset="0" style="stop-color:#FF569F"/>
		<stop  offset="0.9988" style="stop-color:#FF4D80"/>
	</linearGradient>
	<path class="st33" d="M907.67,241.79v29.43H477.91l-24.54-13.76l447.88-5.79c0,0,0-1.72,0-11.01c0-16.8-19.58-24.87-19.58-24.87
		C896.03,215.79,907.67,227.43,907.67,241.79z"/>
	<linearGradient id="SVGID_35_" gradientUnits="userSpaceOnUse" x1="310.9904" y1="291.1059" x2="961.8434" y2="291.1059">
		<stop  offset="0" style="stop-color:#8C86ED"/>
		<stop  offset="1" style="stop-color:#6476ED"/>
	</linearGradient>
	<path class="st34" d="M961.84,262.46v57.3c0,2.77-2.23,4.99-4.99,4.99H315.98c-2.77,0-4.99-2.23-4.99-4.99v-57.3
		c0-2.75,2.23-4.99,4.99-4.99h640.87C959.61,257.46,961.84,259.71,961.84,262.46z"/>
	<linearGradient id="SVGID_36_" gradientUnits="userSpaceOnUse" x1="310.9904" y1="285.4311" x2="961.8434" y2="285.4311">
		<stop  offset="0" style="stop-color:#9D91ED"/>
		<stop  offset="1" style="stop-color:#7389ED"/>
	</linearGradient>
	<path class="st35" d="M961.84,262.46v45.95c0,2.77-2.23,4.99-4.99,4.99H315.98c-2.77,0-4.99-2.23-4.99-4.99v-45.95
		c0-2.75,2.23-4.99,4.99-4.99h640.87C959.61,257.46,961.84,259.71,961.84,262.46z"/>
	<linearGradient id="SVGID_37_" gradientUnits="userSpaceOnUse" x1="331.9243" y1="291.11" x2="364.0244" y2="291.11">
		<stop  offset="0" style="stop-color:#94B9FF"/>
		<stop  offset="1" style="stop-color:#7FB6FF"/>
	</linearGradient>
	<circle class="st36" cx="347.97" cy="291.11" r="16.05"/>
	<linearGradient id="SVGID_38_" gradientUnits="userSpaceOnUse" x1="336.6252" y1="291.11" x2="359.3235" y2="291.11">
		<stop  offset="0" style="stop-color:#E8EFEF"/>
		<stop  offset="1" style="stop-color:#ECF1F6"/>
	</linearGradient>
	<circle class="st37" cx="347.97" cy="291.11" r="11.35"/>
	<linearGradient id="SVGID_39_" gradientUnits="userSpaceOnUse" x1="384.6203" y1="291.11" x2="416.7204" y2="291.11">
		<stop  offset="0" style="stop-color:#94B9FF"/>
		<stop  offset="1" style="stop-color:#7FB6FF"/>
	</linearGradient>
	<circle class="st38" cx="400.67" cy="291.11" r="16.05"/>
	<linearGradient id="SVGID_40_" gradientUnits="userSpaceOnUse" x1="389.3213" y1="291.11" x2="412.0195" y2="291.11">
		<stop  offset="0" style="stop-color:#E8EFEF"/>
		<stop  offset="1" style="stop-color:#ECF1F6"/>
	</linearGradient>
	<circle class="st39" cx="400.67" cy="291.11" r="11.35"/>
	<linearGradient id="SVGID_41_" gradientUnits="userSpaceOnUse" x1="437.3163" y1="291.11" x2="469.4164" y2="291.11">
		<stop  offset="0" style="stop-color:#94B9FF"/>
		<stop  offset="1" style="stop-color:#7FB6FF"/>
	</linearGradient>
	<circle class="st40" cx="453.37" cy="291.11" r="16.05"/>
	<linearGradient id="SVGID_42_" gradientUnits="userSpaceOnUse" x1="442.0173" y1="291.11" x2="464.7155" y2="291.11">
		<stop  offset="0" style="stop-color:#E8EFEF"/>
		<stop  offset="1" style="stop-color:#ECF1F6"/>
	</linearGradient>
	<circle class="st41" cx="453.37" cy="291.11" r="11.35"/>
	<linearGradient id="SVGID_43_" gradientUnits="userSpaceOnUse" x1="502.9721" y1="291.11" x2="530.4865" y2="291.11">
		<stop  offset="0" style="stop-color:#E8EFEF"/>
		<stop  offset="1" style="stop-color:#ECF1F6"/>
	</linearGradient>
	<path class="st42" d="M524.7,296.9h-15.94c-3.2,0-5.79-2.59-5.79-5.79l0,0c0-3.2,2.59-5.79,5.79-5.79h15.94
		c3.2,0,5.79,2.59,5.79,5.79l0,0C530.49,294.31,527.9,296.9,524.7,296.9z"/>
	<linearGradient id="SVGID_44_" gradientUnits="userSpaceOnUse" x1="544.2437" y1="291.11" x2="571.7581" y2="291.11">
		<stop  offset="0" style="stop-color:#E8EFEF"/>
		<stop  offset="1" style="stop-color:#ECF1F6"/>
	</linearGradient>
	<path class="st43" d="M565.97,296.9h-15.94c-3.2,0-5.79-2.59-5.79-5.79l0,0c0-3.2,2.59-5.79,5.79-5.79h15.94
		c3.2,0,5.79,2.59,5.79,5.79l0,0C571.76,294.31,569.17,296.9,565.97,296.9z"/>
	<linearGradient id="SVGID_45_" gradientUnits="userSpaceOnUse" x1="585.5153" y1="291.11" x2="613.0297" y2="291.11">
		<stop  offset="0" style="stop-color:#E8EFEF"/>
		<stop  offset="1" style="stop-color:#ECF1F6"/>
	</linearGradient>
	<path class="st44" d="M607.24,296.9H591.3c-3.2,0-5.79-2.59-5.79-5.79l0,0c0-3.2,2.59-5.79,5.79-5.79h15.94
		c3.2,0,5.79,2.59,5.79,5.79l0,0C613.03,294.31,610.44,296.9,607.24,296.9z"/>
	<linearGradient id="SVGID_46_" gradientUnits="userSpaceOnUse" x1="626.7869" y1="291.11" x2="654.3013" y2="291.11">
		<stop  offset="0" style="stop-color:#E8EFEF"/>
		<stop  offset="1" style="stop-color:#ECF1F6"/>
	</linearGradient>
	<path class="st45" d="M648.51,296.9h-15.94c-3.2,0-5.79-2.59-5.79-5.79l0,0c0-3.2,2.59-5.79,5.79-5.79h15.94
		c3.2,0,5.79,2.59,5.79,5.79l0,0C654.3,294.31,651.71,296.9,648.51,296.9z"/>
	<linearGradient id="SVGID_47_" gradientUnits="userSpaceOnUse" x1="668.0585" y1="291.11" x2="695.5729" y2="291.11">
		<stop  offset="0" style="stop-color:#E8EFEF"/>
		<stop  offset="1" style="stop-color:#ECF1F6"/>
	</linearGradient>
	<path class="st46" d="M689.79,296.9h-15.94c-3.2,0-5.79-2.59-5.79-5.79l0,0c0-3.2,2.59-5.79,5.79-5.79h15.94
		c3.2,0,5.79,2.59,5.79,5.79l0,0C695.57,294.31,692.98,296.9,689.79,296.9z"/>
	<linearGradient id="SVGID_48_" gradientUnits="userSpaceOnUse" x1="709.3301" y1="291.11" x2="736.8444" y2="291.11">
		<stop  offset="0" style="stop-color:#E8EFEF"/>
		<stop  offset="1" style="stop-color:#ECF1F6"/>
	</linearGradient>
	<path class="st47" d="M731.06,296.9h-15.94c-3.2,0-5.79-2.59-5.79-5.79l0,0c0-3.2,2.59-5.79,5.79-5.79h15.94
		c3.2,0,5.79,2.59,5.79,5.79l0,0C736.84,294.31,734.25,296.9,731.06,296.9z"/>
	<linearGradient id="SVGID_49_" gradientUnits="userSpaceOnUse" x1="754.041" y1="291.11" x2="769.1752" y2="291.11">
		<stop  offset="0" style="stop-color:#94B9FF"/>
		<stop  offset="1" style="stop-color:#7FB6FF"/>
	</linearGradient>
	<path class="st48" d="M766.63,302.46h-10.04c-1.41,0-2.55-1.14-2.55-2.55v-17.6c0-1.41,1.14-2.55,2.55-2.55h10.04
		c1.41,0,2.55,1.14,2.55,2.55v17.6C769.18,301.32,768.03,302.46,766.63,302.46z"/>
	<linearGradient id="SVGID_50_" gradientUnits="userSpaceOnUse" x1="775.7072" y1="291.11" x2="790.8414" y2="291.11">
		<stop  offset="0" style="stop-color:#94B9FF"/>
		<stop  offset="1" style="stop-color:#7FB6FF"/>
	</linearGradient>
	<path class="st49" d="M788.29,302.46h-10.04c-1.41,0-2.55-1.14-2.55-2.55v-17.6c0-1.41,1.14-2.55,2.55-2.55h10.04
		c1.41,0,2.55,1.14,2.55,2.55v17.6C790.84,301.32,789.7,302.46,788.29,302.46z"/>
	<linearGradient id="SVGID_51_" gradientUnits="userSpaceOnUse" x1="797.3734" y1="291.11" x2="812.5077" y2="291.11">
		<stop  offset="0" style="stop-color:#94B9FF"/>
		<stop  offset="1" style="stop-color:#7FB6FF"/>
	</linearGradient>
	<path class="st50" d="M809.96,302.46h-10.04c-1.41,0-2.55-1.14-2.55-2.55v-17.6c0-1.41,1.14-2.55,2.55-2.55h10.04
		c1.41,0,2.55,1.14,2.55,2.55v17.6C812.51,301.32,811.37,302.46,809.96,302.46z"/>
	<linearGradient id="SVGID_52_" gradientUnits="userSpaceOnUse" x1="819.0397" y1="291.11" x2="834.174" y2="291.11">
		<stop  offset="0" style="stop-color:#94B9FF"/>
		<stop  offset="1" style="stop-color:#7FB6FF"/>
	</linearGradient>
	<path class="st51" d="M831.63,302.46h-10.04c-1.41,0-2.55-1.14-2.55-2.55v-17.6c0-1.41,1.14-2.55,2.55-2.55h10.04
		c1.41,0,2.55,1.14,2.55,2.55v17.6C834.17,301.32,833.03,302.46,831.63,302.46z"/>
	<linearGradient id="SVGID_53_" gradientUnits="userSpaceOnUse" x1="541.4057" y1="666.7881" x2="731.4281" y2="337.6596">
		<stop  offset="0" style="stop-color:#8C86ED"/>
		<stop  offset="1" style="stop-color:#6476ED"/>
	</linearGradient>
	<path class="st52" d="M961.84,473.57v57.3c0,2.75-2.23,4.99-4.99,4.99H315.98c-2.77,0-4.99-2.24-4.99-4.99v-57.3
		c0-2.75,2.23-4.99,4.99-4.99h640.87C959.61,468.58,961.84,470.82,961.84,473.57z"/>
	<linearGradient id="SVGID_54_" gradientUnits="userSpaceOnUse" x1="729.0155" y1="336.2667" x2="543.8183" y2="657.0377">
		<stop  offset="0" style="stop-color:#9D91ED"/>
		<stop  offset="1" style="stop-color:#7389ED"/>
	</linearGradient>
	<path class="st53" d="M961.84,473.57v46.16c0,2.75-2.23,4.99-4.99,4.99H315.98c-2.77,0-4.99-2.24-4.99-4.99v-46.16
		c0-2.75,2.23-4.99,4.99-4.99h640.87C959.61,468.58,961.84,470.82,961.84,473.57z"/>
	<linearGradient id="SVGID_55_" gradientUnits="userSpaceOnUse" x1="331.9243" y1="502.2246" x2="364.0244" y2="502.2246">
		<stop  offset="0" style="stop-color:#94B9FF"/>
		<stop  offset="1" style="stop-color:#7FB6FF"/>
	</linearGradient>
	<circle class="st54" cx="347.97" cy="502.22" r="16.05"/>
	<linearGradient id="SVGID_56_" gradientUnits="userSpaceOnUse" x1="336.6252" y1="502.2246" x2="359.3235" y2="502.2246">
		<stop  offset="0" style="stop-color:#E8EFEF"/>
		<stop  offset="1" style="stop-color:#ECF1F6"/>
	</linearGradient>
	<circle class="st55" cx="347.97" cy="502.22" r="11.35"/>
	<linearGradient id="SVGID_57_" gradientUnits="userSpaceOnUse" x1="384.6203" y1="502.2246" x2="416.7204" y2="502.2246">
		<stop  offset="0" style="stop-color:#94B9FF"/>
		<stop  offset="1" style="stop-color:#7FB6FF"/>
	</linearGradient>
	<circle class="st56" cx="400.67" cy="502.22" r="16.05"/>
	<linearGradient id="SVGID_58_" gradientUnits="userSpaceOnUse" x1="389.3213" y1="502.2246" x2="412.0195" y2="502.2246">
		<stop  offset="0" style="stop-color:#E8EFEF"/>
		<stop  offset="1" style="stop-color:#ECF1F6"/>
	</linearGradient>
	<circle class="st57" cx="400.67" cy="502.22" r="11.35"/>
	<linearGradient id="SVGID_59_" gradientUnits="userSpaceOnUse" x1="437.3163" y1="502.2246" x2="469.4164" y2="502.2246">
		<stop  offset="0" style="stop-color:#94B9FF"/>
		<stop  offset="1" style="stop-color:#7FB6FF"/>
	</linearGradient>
	<circle class="st58" cx="453.37" cy="502.22" r="16.05"/>
	<linearGradient id="SVGID_60_" gradientUnits="userSpaceOnUse" x1="442.0173" y1="502.2246" x2="464.7155" y2="502.2246">
		<stop  offset="0" style="stop-color:#E8EFEF"/>
		<stop  offset="1" style="stop-color:#ECF1F6"/>
	</linearGradient>
	<circle class="st59" cx="453.37" cy="502.22" r="11.35"/>
	<linearGradient id="SVGID_61_" gradientUnits="userSpaceOnUse" x1="502.9721" y1="502.2246" x2="530.4865" y2="502.2246">
		<stop  offset="0" style="stop-color:#B2CCF2"/>
		<stop  offset="1" style="stop-color:#C5DCF5"/>
	</linearGradient>
	<path class="st60" d="M524.7,508.01h-15.94c-3.2,0-5.79-2.59-5.79-5.79l0,0c0-3.2,2.59-5.79,5.79-5.79h15.94
		c3.2,0,5.79,2.59,5.79,5.79l0,0C530.49,505.42,527.9,508.01,524.7,508.01z"/>
	<linearGradient id="SVGID_62_" gradientUnits="userSpaceOnUse" x1="544.2437" y1="502.2246" x2="571.7581" y2="502.2246">
		<stop  offset="0" style="stop-color:#B2CCF2"/>
		<stop  offset="1" style="stop-color:#C5DCF5"/>
	</linearGradient>
	<path class="st61" d="M565.97,508.01h-15.94c-3.2,0-5.79-2.59-5.79-5.79l0,0c0-3.2,2.59-5.79,5.79-5.79h15.94
		c3.2,0,5.79,2.59,5.79,5.79l0,0C571.76,505.42,569.17,508.01,565.97,508.01z"/>
	<linearGradient id="SVGID_63_" gradientUnits="userSpaceOnUse" x1="585.5153" y1="502.2246" x2="613.0297" y2="502.2246">
		<stop  offset="0" style="stop-color:#B2CCF2"/>
		<stop  offset="1" style="stop-color:#C5DCF5"/>
	</linearGradient>
	<path class="st62" d="M607.24,508.01H591.3c-3.2,0-5.79-2.59-5.79-5.79l0,0c0-3.2,2.59-5.79,5.79-5.79h15.94
		c3.2,0,5.79,2.59,5.79,5.79l0,0C613.03,505.42,610.44,508.01,607.24,508.01z"/>
	<linearGradient id="SVGID_64_" gradientUnits="userSpaceOnUse" x1="626.7869" y1="502.2246" x2="654.3013" y2="502.2246">
		<stop  offset="0" style="stop-color:#B2CCF2"/>
		<stop  offset="1" style="stop-color:#C5DCF5"/>
	</linearGradient>
	<path class="st63" d="M648.51,508.01h-15.94c-3.2,0-5.79-2.59-5.79-5.79l0,0c0-3.2,2.59-5.79,5.79-5.79h15.94
		c3.2,0,5.79,2.59,5.79,5.79l0,0C654.3,505.42,651.71,508.01,648.51,508.01z"/>
	<linearGradient id="SVGID_65_" gradientUnits="userSpaceOnUse" x1="668.0585" y1="502.2246" x2="695.5729" y2="502.2246">
		<stop  offset="0" style="stop-color:#B2CCF2"/>
		<stop  offset="1" style="stop-color:#C5DCF5"/>
	</linearGradient>
	<path class="st64" d="M689.79,508.01h-15.94c-3.2,0-5.79-2.59-5.79-5.79l0,0c0-3.2,2.59-5.79,5.79-5.79h15.94
		c3.2,0,5.79,2.59,5.79,5.79l0,0C695.57,505.42,692.98,508.01,689.79,508.01z"/>
	<linearGradient id="SVGID_66_" gradientUnits="userSpaceOnUse" x1="709.3301" y1="502.2246" x2="736.8444" y2="502.2246">
		<stop  offset="0" style="stop-color:#B2CCF2"/>
		<stop  offset="1" style="stop-color:#C5DCF5"/>
	</linearGradient>
	<path class="st65" d="M731.06,508.01h-15.94c-3.2,0-5.79-2.59-5.79-5.79l0,0c0-3.2,2.59-5.79,5.79-5.79h15.94
		c3.2,0,5.79,2.59,5.79,5.79l0,0C736.84,505.42,734.25,508.01,731.06,508.01z"/>
	<linearGradient id="SVGID_67_" gradientUnits="userSpaceOnUse" x1="754.041" y1="502.2246" x2="769.1752" y2="502.2246">
		<stop  offset="0" style="stop-color:#3F76FF"/>
		<stop  offset="1" style="stop-color:#3F76FF"/>
	</linearGradient>
	<path class="st66" d="M766.63,513.57h-10.04c-1.41,0-2.55-1.14-2.55-2.55v-17.6c0-1.41,1.14-2.55,2.55-2.55h10.04
		c1.41,0,2.55,1.14,2.55,2.55v17.6C769.18,512.43,768.03,513.57,766.63,513.57z"/>
	<linearGradient id="SVGID_68_" gradientUnits="userSpaceOnUse" x1="775.7072" y1="502.2246" x2="790.8414" y2="502.2246">
		<stop  offset="0" style="stop-color:#3F76FF"/>
		<stop  offset="1" style="stop-color:#3F76FF"/>
	</linearGradient>
	<path class="st67" d="M788.29,513.57h-10.04c-1.41,0-2.55-1.14-2.55-2.55v-17.6c0-1.41,1.14-2.55,2.55-2.55h10.04
		c1.41,0,2.55,1.14,2.55,2.55v17.6C790.84,512.43,789.7,513.57,788.29,513.57z"/>
	<linearGradient id="SVGID_69_" gradientUnits="userSpaceOnUse" x1="797.3734" y1="502.2246" x2="812.5077" y2="502.2246">
		<stop  offset="0" style="stop-color:#3F76FF"/>
		<stop  offset="1" style="stop-color:#3F76FF"/>
	</linearGradient>
	<path class="st68" d="M809.96,513.57h-10.04c-1.41,0-2.55-1.14-2.55-2.55v-17.6c0-1.41,1.14-2.55,2.55-2.55h10.04
		c1.41,0,2.55,1.14,2.55,2.55v17.6C812.51,512.43,811.37,513.57,809.96,513.57z"/>
	<linearGradient id="SVGID_70_" gradientUnits="userSpaceOnUse" x1="819.0397" y1="502.2246" x2="834.174" y2="502.2246">
		<stop  offset="0" style="stop-color:#3F76FF"/>
		<stop  offset="1" style="stop-color:#3F76FF"/>
	</linearGradient>
	<path class="st69" d="M831.63,513.57h-10.04c-1.41,0-2.55-1.14-2.55-2.55v-17.6c0-1.41,1.14-2.55,2.55-2.55h10.04
		c1.41,0,2.55,1.14,2.55,2.55v17.6C834.17,512.43,833.03,513.57,831.63,513.57z"/>
	<linearGradient id="SVGID_71_" gradientUnits="userSpaceOnUse" x1="1023.7467" y1="127.1541" x2="1173.6339" y2="127.1541">
		<stop  offset="0" style="stop-color:#D5E5F2"/>
		<stop  offset="1" style="stop-color:#C9E5F5"/>
	</linearGradient>
	<path class="st70" d="M1173.51,188H1157c0,0,4.07-33.59-34.01-33.59c0,0-2.71-67.27-63.46-67.27c-15.13,0-26.8,3.73-35.78,9.35
		c9.42-15.9,25.38-30.18,52.29-30.18c60.75,0,63.46,81.16,63.46,81.16C1177.58,147.47,1173.51,188,1173.51,188z"/>
	<linearGradient id="SVGID_72_" gradientUnits="userSpaceOnUse" x1="847.0906" y1="136.355" x2="1157.1254" y2="136.355">
		<stop  offset="0" style="stop-color:#D9E7F2"/>
		<stop  offset="1" style="stop-color:#D2E9F5"/>
	</linearGradient>
	<path class="st71" d="M1157,188H847.09c6.49-15.28,14.82-24.69,23.63-30.22c14.42-9.03,30.18-7.69,41.48-4.63
		c9.31,2.52,15.59,6.21,15.59,6.21s0-31.36,12.77-53.42c6.93-11.98,17.64-21.23,34.15-21.23c26.22,0,37.79,8.63,42.88,16.23
		c0.83,1.23,1.47,2.42,1.99,3.55c1.21-2.68,2.6-5.37,4.17-8.01c8.98-5.62,20.65-9.35,35.78-9.35c60.75,0,63.46,67.27,63.46,67.27
		C1161.07,154.41,1157,188,1157,188z"/>
	<linearGradient id="SVGID_73_" gradientUnits="userSpaceOnUse" x1="967.5878" y1="29.172" x2="1063.2458" y2="194.8565">
		<stop  offset="0" style="stop-color:#AEC5FF"/>
		<stop  offset="1" style="stop-color:#7FB6FF"/>
	</linearGradient>
	<rect x="955.7" y="36.03" class="st72" width="119.43" height="151.96"/>
	<linearGradient id="SVGID_74_" gradientUnits="userSpaceOnUse" x1="955.7037" y1="102.2673" x2="1062.3219" y2="102.2673">
		<stop  offset="0" style="stop-color:#86B1FF"/>
		<stop  offset="1" style="stop-color:#7AA1FF"/>
	</linearGradient>
	<path class="st73" d="M1062.32,36.03v111.64c0,20.28-13.01,20.83-14.42,20.83c-0.1,0-0.12,0-0.12,0H955.7V36.03H1062.32z"/>
	<linearGradient id="SVGID_75_" gradientUnits="userSpaceOnUse" x1="921.1251" y1="84.3383" x2="1055.0907" y2="84.3383">
		<stop  offset="0" style="stop-color:#94B9FF"/>
		<stop  offset="1" style="stop-color:#7FB6FF"/>
	</linearGradient>
	<path class="st74" d="M935.67,8.35v131.13c0,0-2.68,20.83-14.55,20.83h14.55h104.87c0,0,0.04,0,0.12,0
		c1.41,0,14.42-0.55,14.42-20.83V8.35H935.67z"/>
	<linearGradient id="SVGID_76_" gradientUnits="userSpaceOnUse" x1="945.093" y1="44.5077" x2="995.3408" y2="44.5077">
		<stop  offset="0" style="stop-color:#EEF2EF"/>
		<stop  offset="1" style="stop-color:#F2F6F6"/>
	</linearGradient>
	<path class="st75" d="M989.43,66.36H951c-3.26,0-5.91-2.65-5.91-5.91V28.56c0-3.26,2.65-5.91,5.91-5.91h38.43
		c3.26,0,5.91,2.65,5.91,5.91v31.89C995.34,63.72,992.7,66.36,989.43,66.36z"/>
	<g>
		<linearGradient id="SVGID_77_" gradientUnits="userSpaceOnUse" x1="1003.4089" y1="27.9625" x2="1047.7329" y2="27.9625">
			<stop  offset="0" style="stop-color:#EEF2EF"/>
			<stop  offset="1" style="stop-color:#F2F6F6"/>
		</linearGradient>
		<path class="st76" d="M1046.81,28.88h-42.49c-0.51,0-0.92-0.41-0.92-0.92s0.41-0.92,0.92-0.92h42.49c0.51,0,0.92,0.41,0.92,0.92
			S1047.32,28.88,1046.81,28.88z"/>
	</g>
	<g>
		<linearGradient id="SVGID_78_" gradientUnits="userSpaceOnUse" x1="1003.4089" y1="36.0321" x2="1047.7329" y2="36.0321">
			<stop  offset="0" style="stop-color:#EEF2EF"/>
			<stop  offset="1" style="stop-color:#F2F6F6"/>
		</linearGradient>
		<path class="st77" d="M1046.81,36.95h-42.49c-0.51,0-0.92-0.41-0.92-0.92c0-0.51,0.41-0.92,0.92-0.92h42.49
			c0.51,0,0.92,0.41,0.92,0.92C1047.73,36.54,1047.32,36.95,1046.81,36.95z"/>
	</g>
	<g>
		<linearGradient id="SVGID_79_" gradientUnits="userSpaceOnUse" x1="1003.4089" y1="44.101" x2="1047.7329" y2="44.101">
			<stop  offset="0" style="stop-color:#EEF2EF"/>
			<stop  offset="1" style="stop-color:#F2F6F6"/>
		</linearGradient>
		<path class="st78" d="M1046.81,45.02h-42.49c-0.51,0-0.92-0.41-0.92-0.92c0-0.51,0.41-0.92,0.92-0.92h42.49
			c0.51,0,0.92,0.41,0.92,0.92C1047.73,44.61,1047.32,45.02,1046.81,45.02z"/>
	</g>
	<g>
		<linearGradient id="SVGID_80_" gradientUnits="userSpaceOnUse" x1="1003.4089" y1="52.1706" x2="1047.7329" y2="52.1706">
			<stop  offset="0" style="stop-color:#EEF2EF"/>
			<stop  offset="1" style="stop-color:#F2F6F6"/>
		</linearGradient>
		<path class="st79" d="M1046.81,53.09h-42.49c-0.51,0-0.92-0.41-0.92-0.92s0.41-0.92,0.92-0.92h42.49c0.51,0,0.92,0.41,0.92,0.92
			S1047.32,53.09,1046.81,53.09z"/>
	</g>
	<g>
		<linearGradient id="SVGID_81_" gradientUnits="userSpaceOnUse" x1="1003.4089" y1="60.2402" x2="1047.7329" y2="60.2402">
			<stop  offset="0" style="stop-color:#EEF2EF"/>
			<stop  offset="1" style="stop-color:#F2F6F6"/>
		</linearGradient>
		<path class="st80" d="M1046.81,61.16h-42.49c-0.51,0-0.92-0.41-0.92-0.92c0-0.51,0.41-0.92,0.92-0.92h42.49
			c0.51,0,0.92,0.41,0.92,0.92C1047.73,60.75,1047.32,61.16,1046.81,61.16z"/>
	</g>
	<g>
		<linearGradient id="SVGID_82_" gradientUnits="userSpaceOnUse" x1="1003.4089" y1="68.3091" x2="1047.7329" y2="68.3091">
			<stop  offset="0" style="stop-color:#EEF2EF"/>
			<stop  offset="1" style="stop-color:#F2F6F6"/>
		</linearGradient>
		<path class="st81" d="M1046.81,69.23h-42.49c-0.51,0-0.92-0.41-0.92-0.92s0.41-0.92,0.92-0.92h42.49c0.51,0,0.92,0.41,0.92,0.92
			S1047.32,69.23,1046.81,69.23z"/>
	</g>
	<g>
		<linearGradient id="SVGID_83_" gradientUnits="userSpaceOnUse" x1="944.1737" y1="76.3787" x2="1047.7329" y2="76.3787">
			<stop  offset="0" style="stop-color:#EEF2EF"/>
			<stop  offset="1" style="stop-color:#F2F6F6"/>
		</linearGradient>
		<path class="st82" d="M1046.81,77.3H945.09c-0.51,0-0.92-0.41-0.92-0.92c0-0.51,0.41-0.92,0.92-0.92h101.72
			c0.51,0,0.92,0.41,0.92,0.92C1047.73,76.89,1047.32,77.3,1046.81,77.3z"/>
	</g>
	<g>
		<linearGradient id="SVGID_84_" gradientUnits="userSpaceOnUse" x1="944.1737" y1="84.4476" x2="1047.7329" y2="84.4476">
			<stop  offset="0" style="stop-color:#EEF2EF"/>
			<stop  offset="1" style="stop-color:#F2F6F6"/>
		</linearGradient>
		<path class="st83" d="M1046.81,85.37H945.09c-0.51,0-0.92-0.41-0.92-0.92s0.41-0.92,0.92-0.92h101.72c0.51,0,0.92,0.41,0.92,0.92
			S1047.32,85.37,1046.81,85.37z"/>
	</g>
	<g>
		<linearGradient id="SVGID_85_" gradientUnits="userSpaceOnUse" x1="944.1737" y1="92.5172" x2="1047.7329" y2="92.5172">
			<stop  offset="0" style="stop-color:#EEF2EF"/>
			<stop  offset="1" style="stop-color:#F2F6F6"/>
		</linearGradient>
		<path class="st84" d="M1046.81,93.44H945.09c-0.51,0-0.92-0.41-0.92-0.92s0.41-0.92,0.92-0.92h101.72c0.51,0,0.92,0.41,0.92,0.92
			S1047.32,93.44,1046.81,93.44z"/>
	</g>
	<g>
		<linearGradient id="SVGID_86_" gradientUnits="userSpaceOnUse" x1="944.1737" y1="100.5861" x2="1047.7329" y2="100.5861">
			<stop  offset="0" style="stop-color:#EEF2EF"/>
			<stop  offset="1" style="stop-color:#F2F6F6"/>
		</linearGradient>
		<path class="st85" d="M1046.81,101.51H945.09c-0.51,0-0.92-0.41-0.92-0.92c0-0.51,0.41-0.92,0.92-0.92h101.72
			c0.51,0,0.92,0.41,0.92,0.92C1047.73,101.09,1047.32,101.51,1046.81,101.51z"/>
	</g>
	<g>
		<linearGradient id="SVGID_87_" gradientUnits="userSpaceOnUse" x1="944.1737" y1="108.6557" x2="1047.7329" y2="108.6557">
			<stop  offset="0" style="stop-color:#EEF2EF"/>
			<stop  offset="1" style="stop-color:#F2F6F6"/>
		</linearGradient>
		<path class="st86" d="M1046.81,109.57H945.09c-0.51,0-0.92-0.41-0.92-0.92s0.41-0.92,0.92-0.92h101.72c0.51,0,0.92,0.41,0.92,0.92
			S1047.32,109.57,1046.81,109.57z"/>
	</g>
	<g>
		<linearGradient id="SVGID_88_" gradientUnits="userSpaceOnUse" x1="944.1737" y1="116.7253" x2="1047.7329" y2="116.7253">
			<stop  offset="0" style="stop-color:#EEF2EF"/>
			<stop  offset="1" style="stop-color:#F2F6F6"/>
		</linearGradient>
		<path class="st87" d="M1046.81,117.64H945.09c-0.51,0-0.92-0.41-0.92-0.92s0.41-0.92,0.92-0.92h101.72c0.51,0,0.92,0.41,0.92,0.92
			S1047.32,117.64,1046.81,117.64z"/>
	</g>
	<g>
		<linearGradient id="SVGID_89_" gradientUnits="userSpaceOnUse" x1="944.1737" y1="124.7942" x2="1047.7329" y2="124.7942">
			<stop  offset="0" style="stop-color:#EEF2EF"/>
			<stop  offset="1" style="stop-color:#F2F6F6"/>
		</linearGradient>
		<path class="st88" d="M1046.81,125.71H945.09c-0.51,0-0.92-0.41-0.92-0.92s0.41-0.92,0.92-0.92h101.72c0.51,0,0.92,0.41,0.92,0.92
			S1047.32,125.71,1046.81,125.71z"/>
	</g>
	<linearGradient id="SVGID_90_" gradientUnits="userSpaceOnUse" x1="906.2836" y1="149.9065" x2="1040.2493" y2="149.9065">
		<stop  offset="0" style="stop-color:#8EB1FF"/>
		<stop  offset="1" style="stop-color:#70AAFF"/>
	</linearGradient>
	<path class="st89" d="M1040.25,160.32H920.83c0,0-14.55,0.61-14.55-20.83h122.56C1028.84,139.49,1028.39,160.32,1040.25,160.32z"/>
</g>
</svg>
