<svg xmlns="http://www.w3.org/2000/svg" width="41.244" height="50.688" viewBox="0 0 41.244 50.688">
  <g id="Group_1330" data-name="Group 1330" transform="translate(-222.594 -289.673) rotate(-16)">
    <ellipse id="Ellipse_11" data-name="Ellipse 11" cx="10.329" cy="5.964" rx="10.329" ry="5.964" transform="translate(135.863 381.109)" opacity="0.08"/>
    <g id="Group_1330-2" data-name="Group 1330" transform="translate(132.989 359.554)">
      <ellipse id="Ellipse_12" data-name="Ellipse 12" cx="13.179" cy="7.609" rx="13.179" ry="7.609" fill="#c5b9b5"/>
    </g>
    <g id="Group_1331" data-name="Group 1331" transform="translate(132.273 361.637)">
      <path id="Path_3263" data-name="Path 3263" d="M138.78,429.151l-4.231-24.768h27.776l-4.156,24.708Z" transform="translate(-134.549 -404.383)" fill="#e60026" fill-rule="evenodd"/>
    </g>
    <g id="Group_1332" data-name="Group 1332" transform="translate(136.44 380.546)">
      <ellipse id="Ellipse_13" data-name="Ellipse 13" cx="9.728" cy="5.616" rx="9.728" ry="5.616" fill="#e60026"/>
    </g>
    <g id="Group_1333" data-name="Group 1333" transform="translate(142.922 363.028)">
      <path id="Path_3264" data-name="Path 3264" d="M176.03,409.8h5.582l-1.577,28.413h-2.306Z" transform="translate(-176.03 -409.798)" fill="#f62121" fill-rule="evenodd"/>
    </g>
    <g id="Group_1334" data-name="Group 1334" transform="translate(133.358 369.025)">
      <path id="Path_3265" data-name="Path 3265" d="M164.455,433.159a8.156,8.156,0,0,1-3.45,3.437c-5.231,3.02-13.711,3.02-18.942,0a8.461,8.461,0,0,1-3.288-3.121l1.986,12.707a7.354,7.354,0,0,0,2.662,2.442c4.48,2.586,11.743,2.587,16.223,0a7.031,7.031,0,0,0,2.858-2.787Z" transform="translate(-138.775 -433.159)" fill="#e2e6ea" fill-rule="evenodd"/>
    </g>
    <g id="Group_1335" data-name="Group 1335" transform="translate(136.388 385.816)">
      <path id="Path_3266" data-name="Path 3266" d="M167.238,502.242a15.2,15.2,0,0,1-13.757,0,5.269,5.269,0,0,1-2.886-3.676c-.152,1.543.845,3.14,2.886,4.318a15.2,15.2,0,0,0,13.757,0c2.041-1.178,3.087-2.776,2.935-4.318A5.475,5.475,0,0,1,167.238,502.242Z" transform="translate(-150.58 -498.566)" fill="#ce0000" fill-rule="evenodd"/>
    </g>
    <g id="Group_1339" data-name="Group 1339" transform="translate(131.487 346.874)">
      <ellipse id="Ellipse_14" data-name="Ellipse 14" cx="14.674" cy="8.472" rx="14.674" ry="8.472" transform="translate(0 2.14)" fill="#bde6ff"/>
      <g id="Group_1336" data-name="Group 1336" transform="translate(0 10.291)">
        <path id="Path_3267" data-name="Path 3267" d="M245.8,387.282v-.32C245.793,387.069,245.8,387.175,245.8,387.282Z" transform="translate(-216.451 -386.962)" fill="#b1a29c" fill-rule="evenodd"/>
        <path id="Path_3268" data-name="Path 3268" d="M156.537,394.2c-5.73,3.309-15.022,3.308-20.752,0-2.865-1.654-4.3-3.823-4.3-5.991v2.054h.015c.151,2.045,1.578,4.065,4.283,5.627,5.731,3.309,15.022,3.309,20.752,0,2.705-1.562,4.132-3.581,4.283-5.627h.015v-2.053C160.835,390.38,159.4,392.548,156.537,394.2Z" transform="translate(-131.487 -387.89)" fill="#8fd4ff" fill-rule="evenodd"/>
        <path id="Path_3269" data-name="Path 3269" d="M131.487,386.962v.321c0-.107.006-.214.013-.321Z" transform="translate(-131.487 -386.962)" fill="#b1a29c" fill-rule="evenodd"/>
      </g>
      <g id="Group_1338" data-name="Group 1338" transform="translate(2.062)">
        <ellipse id="Ellipse_15" data-name="Ellipse 15" cx="12.612" cy="7.281" rx="12.612" ry="7.281" fill="#e3f3ff"/>
        <g id="Group_1337" data-name="Group 1337" transform="translate(0 7.006)">
          <path id="Path_3270" data-name="Path 3270" d="M237.767,374.438v-.275C237.762,374.255,237.767,374.346,237.767,374.438Z" transform="translate(-212.544 -374.163)" fill="#b1a29c" fill-rule="evenodd"/>
          <path id="Path_3271" data-name="Path 3271" d="M161.051,380.385c-4.925,2.844-12.91,2.843-17.836,0-2.463-1.422-3.694-3.285-3.694-5.149v2.914c.143,1.758,1.369,3.494,3.694,4.836,4.925,2.844,12.91,2.844,17.836,0,2.325-1.342,3.551-3.078,3.681-4.836a2.486,2.486,0,0,0,.013-.312v-2.6C164.744,377.1,163.513,378.963,161.051,380.385Z" transform="translate(-139.521 -374.961)" fill="#8fd4ff" fill-rule="evenodd"/>
        </g>
        <ellipse id="Ellipse_16" data-name="Ellipse 16" cx="8.858" cy="5.114" rx="8.858" ry="5.114" transform="translate(3.754 2.167)" fill="#8fd4ff"/>
        <path id="Path_3272" data-name="Path 3272" d="M156.765,357.432a13.844,13.844,0,0,1,12.527,0,4.575,4.575,0,0,1,2.569,3.307c.147-1.41-.7-2.848-2.569-3.925a13.844,13.844,0,0,0-12.527,0c-1.866,1.077-2.716,2.515-2.569,3.925A4.576,4.576,0,0,1,156.765,357.432Z" transform="translate(-150.416 -353.149)" fill="#399eff" fill-rule="evenodd"/>
      </g>
      <path id="Path_3273" data-name="Path 3273" d="M155.159,390.195l-1.74-1c-.229-.132-.2-.363.064-.516a.994.994,0,0,1,.894-.037l1.74,1c.229.132.2.363-.064.516A.994.994,0,0,1,155.159,390.195Z" transform="translate(-147.674 -377.85)" fill="#399eff" fill-rule="evenodd"/>
    </g>
    <path id="Path_3274" data-name="Path 3274" d="M178.6,454.9l.733,11.741a7.568,7.568,0,0,0,1.4.082c1.026,0,1.494-.03,1.494-.03l.654-11.794Z" transform="translate(-35.022 -80.294)" fill="#fff" fill-rule="evenodd"/>
    <g id="Group_1340" data-name="Group 1340" transform="translate(132.945 367.121)">
      <path id="Path_3275" data-name="Path 3275" d="M159.75,430.891c-5.169,2.984-13.55,2.984-18.72,0-2.471-1.427-3.747-3.278-3.856-5.147-.118,2.04,1.158,4.1,3.856,5.661,5.17,2.985,13.55,2.985,18.72,0,2.7-1.557,3.974-3.62,3.855-5.661C163.5,427.613,162.221,429.464,159.75,430.891Z" transform="translate(-137.167 -425.744)" fill="#cad1d7" fill-rule="evenodd"/>
    </g>
    <path id="Path_3276" data-name="Path 3276" d="M147.7,443.8a4.73,4.73,0,0,1,3.323.659,9.579,9.579,0,0,1,2.249,1.767C150.521,445.269,148.488,444.544,147.7,443.8Z" transform="translate(-12.048 -71.983)" fill="#cad1d7"/>
    <path id="Path_3277" data-name="Path 3277" d="M150.768,458.038c-.987,1.662-2.993,2.072-5.278.809a8.158,8.158,0,0,1-2.788-2.5l-1.724-10.56c1.084-1.091,2.815-1.217,4.761-.141a11.574,11.574,0,0,1,4.465,4.943Z" transform="translate(-7.055 -72.862)" fill="#e2e6ea"/>
    <g id="Group_1341" data-name="Group 1341" transform="translate(135.116 375.257)">
      <path id="Path_3278" data-name="Path 3278" d="M155.328,461.631a4.106,4.106,0,0,0-1.107-4.148l-.046-.047c1.307.142,2.738,1.641,3.372,3.636.658,2.071.228,3.954-.948,4.444A3.654,3.654,0,0,1,155.328,461.631Z" transform="translate(-151.979 -457.437)" fill="#4a2730"/>
      <path id="Path_3279" data-name="Path 3279" d="M147.092,457.793l.326.33a3.568,3.568,0,0,1,.962,3.6,4.152,4.152,0,0,0,1.191,4.228c-1.374.052-2.961-1.514-3.639-3.646C145.235,460.118,145.756,458.136,147.092,457.793Z" transform="translate(-145.622 -457.702)" fill="#4a2730"/>
    </g>
    <g id="Group_1344" data-name="Group 1344" transform="translate(149.438 369.735)">
      <g id="Group_1342" data-name="Group 1342" transform="translate(0.305)">
        <path id="Path_3280" data-name="Path 3280" d="M221.2,453.422s-.674,2.127-4.667,8.147-5.761,7.572-5.761,7.572l-.3-.028s-1.435-2,3.337-9.191,7.091-6.528,7.091-6.528Z" transform="translate(-208.299 -448.898)" fill="#2c89ff" fill-rule="evenodd"/>
        <path id="Path_3281" data-name="Path 3281" d="M251.009,439.005l-.959,1.446-.3-.028-.667-2.868.109-1.628.3.028.061.9.473.127,0,.833.473.127.02.859Z" transform="translate(-237.146 -435.927)" fill="#143684" fill-rule="evenodd"/>
        <path id="Path_3282" data-name="Path 3282" d="M202.6,508.53l2.171,1.577.3.028-.959,1.446-.3-.028.077-1.115-.31-.713-.473-.127-.02-.858Z" transform="translate(-202.598 -489.891)" fill="#143684" fill-rule="evenodd"/>
      </g>
      <g id="Group_1343" data-name="Group 1343" transform="translate(0)">
        <path id="Path_3283" data-name="Path 3283" d="M217.091,444.608s-.422-.3-5.645,7.574-4.783,8.145-4.783,8.145l-1.517-3.051s.511-1.705,4.783-8.145,5.645-7.574,5.645-7.574Z" transform="translate(-204.187 -440.112)" fill="#399eff" fill-rule="evenodd"/>
        <path id="Path_3284" data-name="Path 3284" d="M217.869,446.152s-.423-.3-5.645,7.573-4.783,8.145-4.783,8.145l-.53-.978s.511-1.705,4.783-8.145,5.645-7.574,5.645-7.574Z" transform="translate(-205.498 -442.8)" fill="#fff" fill-rule="evenodd"/>
        <path id="Path_3285" data-name="Path 3285" d="M248.244,438.977l-.959,1.446-1.517-3.05.959-1.446.061.9.473.127,0,.833.473.127.02.859Z" transform="translate(-234.381 -435.927)" fill="#2051a4" fill-rule="evenodd"/>
        <path id="Path_3286" data-name="Path 3286" d="M201.411,504.234l.959-1.446,1.517,3.05-.959,1.446-.061-.9-.473-.127,0-.833-.473-.127-.02-.859Z" transform="translate(-201.411 -485.624)" fill="#2051a4" fill-rule="evenodd"/>
      </g>
    </g>
  </g>
</svg>
