<svg xmlns="http://www.w3.org/2000/svg" width="36.109" height="35.798" viewBox="0 0 36.109 35.798">
  <path id="Icon_simple-github" data-name="Icon simple-github" d="M13.613.445a13.613,13.613,0,0,0-4.3,26.527c.681.128.93-.293.93-.655,0-.323-.011-1.18-.017-2.314-3.787.821-4.585-1.826-4.585-1.826a3.608,3.608,0,0,0-1.514-1.991c-1.233-.844.1-.827.1-.827a2.854,2.854,0,0,1,2.085,1.4,2.9,2.9,0,0,0,3.965,1.132,2.9,2.9,0,0,1,.862-1.821c-3.023-.34-6.2-1.511-6.2-6.727a5.252,5.252,0,0,1,1.4-3.653,4.84,4.84,0,0,1,.119-3.6s1.14-.365,3.743,1.4a12.834,12.834,0,0,1,6.806,0c2.586-1.761,3.726-1.4,3.726-1.4a4.974,4.974,0,0,1,.136,3.6,5.273,5.273,0,0,1,1.4,3.653c0,5.229-3.182,6.381-6.211,6.716a3.259,3.259,0,0,1,.919,2.518c0,1.822-.017,3.285-.017,3.728,0,.357.238.783.936.647A13.6,13.6,0,0,0,13.613.445" transform="matrix(0.899, -0.438, 0.438, 0.899, -0.195, 11.534)" fill="#6c757d"/>
</svg>
