<svg xmlns="http://www.w3.org/2000/svg" width="40.625" height="53.059" viewBox="0 0 40.625 53.059">
  <g id="Group_1356" data-name="Group 1356" transform="translate(64.213 -757.103) rotate(11)">
    <g id="Group_1347" data-name="Group 1347" transform="translate(88.257 754.118)">
      <g id="Group_1345" data-name="Group 1345" transform="translate(0 0)">
        <path id="Path_3287" data-name="Path 3287" d="M122.556,771.268a17.15,17.15,0,1,0-34.3,0c0,14.276,10.348,13.827,10.281,15.576v3.729h13.738v-3.729C112.253,784.107,122.556,786.117,122.556,771.268Z" transform="translate(-88.257 -754.118)" fill="#f0c670"/>
      </g>
      <g id="Group_1346" data-name="Group 1346" transform="translate(9.505 5.799)">
        <path id="Path_3288" data-name="Path 3288" d="M164.438,797.252a16.382,16.382,0,0,0-4.558-11.351l-19.525,25.347c.9.426,1.506.832,1.486,1.59v3.007h12.317v-3.019c-.011-1.291,1.223-1.815,2.652-2.422C159.847,809.115,164.438,807.166,164.438,797.252Z" transform="translate(-140.354 -785.901)" fill="#ecb64d"/>
      </g>
    </g>
    <g id="Group_1351" data-name="Group 1351" transform="translate(91.377 757.401)">
      <g id="Group_1348" data-name="Group 1348" transform="translate(20.65 14.603)" style="mix-blend-mode: multiply;isolation: isolate">
        <path id="Path_3289" data-name="Path 3289" d="M219.15,863.321a.609.609,0,0,1-.142-1.2,9.149,9.149,0,0,0,4.906-3.949c1.3-1.927,1.933-3.994,1.626-5.265a.609.609,0,0,1,1.184-.286c.39,1.612-.3,4-1.8,6.231a10.22,10.22,0,0,1-5.63,4.453A.6.6,0,0,1,219.15,863.321Z" transform="translate(-218.542 -852.154)" fill="#f4d890"/>
      </g>
      <g id="Group_1349" data-name="Group 1349" transform="translate(0 1.013)" style="mix-blend-mode: screen;isolation: isolate">
        <path id="Path_3290" data-name="Path 3290" d="M106.04,788.673a.609.609,0,0,1-.594-.479c-.353-1.621.391-3.992,1.941-6.188a10.219,10.219,0,0,1,5.731-4.323.609.609,0,1,1,.259,1.19,9.15,9.15,0,0,0-5,3.836c-1.339,1.9-2.024,3.948-1.746,5.226a.609.609,0,0,1-.6.738Z" transform="translate(-105.359 -777.669)" fill="#f0c670"/>
      </g>
      <g id="Group_1350" data-name="Group 1350" transform="translate(10.271)" style="mix-blend-mode: screen;isolation: isolate">
        <path id="Path_3291" data-name="Path 3291" d="M165.252,773.5a.607.607,0,0,1-.256-.057,6.933,6.933,0,0,0-2.629.048.609.609,0,1,1-.206-1.2,7.572,7.572,0,0,1,3.348.048.609.609,0,0,1-.257,1.161Z" transform="translate(-161.654 -772.115)" fill="#f0c670"/>
      </g>
    </g>
    <g id="Group_1352" data-name="Group 1352" transform="translate(96.592 772.661)">
      <path id="Path_3292" data-name="Path 3292" d="M145.994,874.3a.609.609,0,0,1-.6-.533,68.371,68.371,0,0,1-.444-7.028,37.294,37.294,0,0,1,.232-4.785,20.422,20.422,0,0,1-4.866.018,38.384,38.384,0,0,1,.249,4.72,70.362,70.362,0,0,1-.392,7.07.609.609,0,0,1-1.209-.141,54.947,54.947,0,0,0,.093-11.855,10.056,10.056,0,0,1-2.885-1.032,3.766,3.766,0,0,1-2.23-2.968c0-1,.766-2.017,2.476-2.017a2.751,2.751,0,0,1,2.115.994,8.272,8.272,0,0,1,1.592,3.977,19,19,0,0,0,5.247-.022,8.2,8.2,0,0,1,1.575-3.914,2.846,2.846,0,0,1,2.2-1.036c1.664,0,2.409.983,2.409,1.956a3.829,3.829,0,0,1-2.278,3,10.176,10.176,0,0,1-2.835,1.032,53.186,53.186,0,0,0,.159,11.879.609.609,0,0,1-.528.68A.666.666,0,0,1,145.994,874.3Zm-9.578-17.334c-.608,0-1.259.21-1.259.8,0,.483.423,1.238,1.611,1.908a8.344,8.344,0,0,0,2.063.793,6.526,6.526,0,0,0-1.21-2.915A1.562,1.562,0,0,0,136.416,856.97Zm12.728,0a1.655,1.655,0,0,0-1.286.624,6.43,6.43,0,0,0-1.192,2.841,8.488,8.488,0,0,0,2.011-.788c1.224-.69,1.659-1.475,1.659-1.939C150.336,857.023,149.424,856.97,149.145,856.97Z" transform="translate(-133.94 -855.752)" fill="#2c3348"/>
    </g>
    <g id="Group_1353" data-name="Group 1353" transform="translate(102.41 798.26)">
      <circle id="Ellipse_17" data-name="Ellipse 17" cx="2.997" cy="2.997" r="2.997" transform="translate(0 0)" fill="#cfe7f4"/>
    </g>
    <g id="Group_1354" data-name="Group 1354" transform="translate(98.538 790.572)">
      <path id="Path_3293" data-name="Path 3293" d="M144.6,957.736a6.889,6.889,0,0,0,6.869,6.869h0a6.889,6.889,0,0,0,6.869-6.869V953.92H144.6Z" transform="translate(-144.605 -953.92)" fill="#7ad6d3"/>
    </g>
    <g id="Group_1355" data-name="Group 1355" transform="translate(102.257 791.282)">
      <path id="Path_3294" data-name="Path 3294" d="M174.3,960.918v-3.106h-2.841l-6.467,8.4a6.155,6.155,0,0,0,9.308-5.29Z" transform="translate(-164.991 -957.812)" fill="#67b6b9"/>
    </g>
  </g>
</svg>
