<svg xmlns="http://www.w3.org/2000/svg" width="35.822" height="37.888" viewBox="0 0 35.822 37.888">
  <path id="Icon_awesome-node-js" data-name="Icon awesome-node-js" d="M13.556,30.768a2.369,2.369,0,0,1-1.173-.315L8.651,28.245c-.556-.315-.284-.423-.1-.484a7.352,7.352,0,0,0,1.688-.768.273.273,0,0,1,.278.024l2.867,1.7a.35.35,0,0,0,.345,0L24.9,22.269a.358.358,0,0,0,.169-.3V9.071a.36.36,0,0,0-.175-.308L13.726,2.32a.35.35,0,0,0-.345,0L2.221,8.768a.353.353,0,0,0-.175.308v12.89a.334.334,0,0,0,.175.3l3.061,1.766c1.663.829,2.68-.145,2.68-1.131V10.172a.32.32,0,0,1,.327-.321H9.7a.324.324,0,0,1,.327.321V22.9c0,2.214-1.21,3.484-3.309,3.484a4.75,4.75,0,0,1-2.571-.7L1.223,24A2.352,2.352,0,0,1,.049,21.961V9.071A2.359,2.359,0,0,1,1.223,7.032L12.383.584a2.449,2.449,0,0,1,2.347,0L25.9,7.038a2.352,2.352,0,0,1,1.173,2.038v12.89A2.367,2.367,0,0,1,25.9,24.005L14.73,30.453a2.352,2.352,0,0,1-1.173.315Zm9.019-12.709c0-2.413-1.633-3.055-5.063-3.508-3.472-.46-3.823-.7-3.823-1.506,0-.671.3-1.567,2.867-1.567,2.292,0,3.139.5,3.49,2.044a.324.324,0,0,0,.315.254h1.452a.316.316,0,0,0,.236-.1.337.337,0,0,0,.085-.248c-.224-2.668-2-3.908-5.577-3.908-3.188,0-5.087,1.343-5.087,3.6,0,2.444,1.893,3.121,4.948,3.424,3.66.357,3.944.9,3.944,1.615,0,1.246-1,1.778-3.357,1.778-2.958,0-3.605-.744-3.823-2.214a.32.32,0,0,0-.321-.272H11.415a.319.319,0,0,0-.321.321c0,1.881,1.022,4.125,5.916,4.125,3.532-.006,5.565-1.4,5.565-3.835Z" transform="translate(10.477 -0.284) rotate(20)" fill="#28a745"/>
</svg>
