<svg height='100px' width='100px'  fill="#641fed" xmlns="http://www.w3.org/2000/svg" xmlns:xlink="http://www.w3.org/1999/xlink" version="1.1" x="0px" y="0px" viewBox="0 0 64 64" style="enable-background:new 0 0 64 64;" xml:space="preserve"><g><path d="M41,14c0-4.963-4.037-9-9-9s-9,4.037-9,9c0,2.999,1.519,5.812,4,7.475v1.576c-1.14,0.232-2,1.242-2,2.449   c0,0.89,0.47,1.666,1.171,2.11C26.065,27.887,26,28.185,26,28.5c0,1.379,1.121,2.5,2.5,2.5h7c1.379,0,2.5-1.121,2.5-2.5   c0-0.315-0.065-0.613-0.171-0.89C38.53,27.166,39,26.39,39,25.5c0-1.208-0.86-2.217-2-2.449v-1.576C39.481,19.812,41,16.999,41,14z    M25,14c0-3.859,3.141-7,7-7s7,3.141,7,7c0,2.484-1.342,4.805-3.501,6.056L35,20.345V23h-2v-6.184c1.161-0.414,2-1.514,2-2.816   c0-1.654-1.346-3-3-3s-3,1.346-3,3c0,1.302,0.839,2.402,2,2.816V23h-2v-2.655l-0.499-0.289C26.342,18.805,25,16.484,25,14z M31,14   c0-0.552,0.448-1,1-1s1,0.448,1,1s-0.448,1-1,1S31,14.552,31,14z M27.5,25h9c0.275,0,0.5,0.225,0.5,0.5S36.775,26,36.5,26h-1h-7h-1   c-0.275,0-0.5-0.225-0.5-0.5S27.225,25,27.5,25z M35.5,29h-7c-0.275,0-0.5-0.225-0.5-0.5s0.225-0.5,0.5-0.5h7   c0.275,0,0.5,0.225,0.5,0.5S35.775,29,35.5,29z"></path><path d="M40.43,48.9c-0.455-1.154-1.551-1.9-2.791-1.9H37V35.5c0-1.93-1.57-3.5-3.5-3.5S30,33.57,30,35.5v4.755   C29.645,40.104,29.269,40,28.87,40h-0.949C26.311,40,25,41.311,25,42.921V43h-1.079C22.311,43,21,44.311,21,45.921V46h-0.079   C19.311,46,18,47.311,18,48.921V49v0.204v2.007c0,1.376,0.277,2.713,0.824,3.976l1.516,3.499c0.438,1.011,0.66,2.08,0.66,3.181V62   h2v-0.134c0-1.376-0.277-2.713-0.824-3.976l-1.516-3.499c-0.26-0.6-0.435-1.223-0.541-1.858l3.76,3.76   c0.585,0.585,1.353,0.877,2.121,0.877s1.536-0.292,2.121-0.877l0.172-0.172c0.474-0.474,0.746-1.069,0.836-1.685   c0.04,0.002,0.079,0.011,0.119,0.011c0.539,0,1.081-0.148,1.559-0.451l0.061-0.038c0.143-0.095,0.266-0.211,0.388-0.328   c0.452,0.409,1.005,0.715,1.629,0.871l1.341,0.336l0.827,2.479l1.896-0.633l-1.173-3.521l-2.406-0.602   c-0.599-0.15-1.062-0.588-1.261-1.144l-0.01-0.03c-0.058-0.171-0.087-0.353-0.091-0.54l0.007-0.133   c0.031-0.599,0.35-1.118,0.817-1.423c0.011-0.007,0.024-0.012,0.035-0.019c0.083-0.052,0.169-0.099,0.26-0.136   c0.042-0.017,0.087-0.027,0.13-0.041c0.065-0.021,0.129-0.046,0.197-0.059C33.568,49.013,33.686,49,33.808,49H35h0.588H37h0.639   c0.407,0,0.781,0.255,0.93,0.633l1.223,3.104C39.93,53.089,40,53.459,40,53.836v0.22c0,0.463-0.109,0.928-0.316,1.342l-1.156,2.312   C38.183,58.399,38,59.173,38,59.944V62h2v-2.056c0-0.463,0.109-0.928,0.316-1.342l1.156-2.312C41.817,55.601,42,54.827,42,54.056   v-0.22c0-0.629-0.117-1.245-0.348-1.832L40.43,48.9z M33.5,34c0.827,0,1.5,0.673,1.5,1.5V47h-0.523L32,42.542V35.5   C32,34.673,32.673,34,33.5,34z M27,42.921C27,42.413,27.413,42,27.921,42h0.949c0.334,0,0.643,0.182,0.805,0.474l2.676,4.817   c-0.002,0.001-0.004,0.002-0.007,0.003c-0.034,0.014-0.064,0.034-0.097,0.049c-0.165,0.075-0.324,0.161-0.476,0.259   c-0.067,0.043-0.131,0.089-0.196,0.136c-0.114,0.084-0.222,0.174-0.326,0.269c-0.06,0.055-0.122,0.107-0.179,0.166   c-0.131,0.137-0.253,0.281-0.363,0.437l-2.145-2.86l-1.186-1.581c0,0-0.001-0.001-0.001-0.001l-0.19-0.254   C27.063,43.752,27,43.561,27,43.359V42.921z M26.879,54.707l-0.172,0.172c-0.391,0.391-1.023,0.391-1.414,0l-5.023-5.023   C20.096,49.682,20,49.45,20,49.204V49v-0.079C20,48.413,20.413,48,20.921,48h0.283c0.246,0,0.478,0.096,0.651,0.27l5.023,5.023   C27.269,53.683,27.269,54.317,26.879,54.707z M29.774,52.282l-0.02,0.013c-0.365,0.242-0.852,0.194-1.161-0.115l-0.301-0.301   l-5.023-5.023C23.096,46.682,23,46.45,23,46.204v-0.283C23,45.413,23.413,45,23.921,45h1.118c0.288,0,0.561,0.137,0.734,0.366   l2.32,3.092l1.89,2.52c0.008,0.01,0.015,0.021,0.022,0.031c0.003,0.051,0.019,0.101,0.024,0.152c0.016,0.172,0.041,0.34,0.08,0.505   c0.008,0.035,0.007,0.071,0.017,0.105C30.084,51.932,29.988,52.132,29.774,52.282z"></path><rect x="31" y="2" width="2" height="2"></rect><rect x="25.5" y="3.473" transform="matrix(0.8661 -0.4999 0.4999 0.8661 1.3126 13.847)" width="2" height="2"></rect><rect x="21.473" y="7.5" transform="matrix(0.4999 -0.8661 0.8661 0.4999 3.877 23.7145)" width="2" height="2"></rect><rect x="20" y="13" width="2" height="2"></rect><rect x="21.473" y="18.5" transform="matrix(0.8661 -0.4999 0.4999 0.8661 -6.7386 13.8466)" width="2" height="2"></rect><rect x="40.526" y="18.5" transform="matrix(0.4999 -0.8661 0.8661 0.4999 3.8781 45.7164)" width="2" height="2"></rect><rect x="42" y="13" width="2" height="2"></rect><rect x="40.526" y="7.5" transform="matrix(0.8661 -0.4999 0.4999 0.8661 1.3122 21.8982)" width="2" height="2"></rect><rect x="36.5" y="3.473" transform="matrix(0.4999 -0.8661 0.8661 0.4999 14.8785 34.7149)" width="2" height="2"></rect><polygon points="62,14 60,14 60,12 58,12 58,14 56,14 56,16 58,16 58,18 60,18 60,16 62,16  "></polygon><polygon points="50,8 52,8 52,6 54,6 54,4 52,4 52,2 50,2 50,4 48,4 48,6 50,6  "></polygon><polygon points="6,18 4,18 4,20 2,20 2,22 4,22 4,24 6,24 6,22 8,22 8,20 6,20  "></polygon><polygon points="15,12 15,10 13,10 13,8 11,8 11,10 9,10 9,12 11,12 11,14 13,14 13,12  "></polygon><polygon points="18,34 18,32 20,32 20,30 18,30 18,28 16,28 16,30 14,30 14,32 16,32 16,34  "></polygon><polygon points="53,23 51,23 51,25 49,25 49,27 51,27 51,29 53,29 53,27 55,27 55,25 53,25  "></polygon></g></svg>