<svg height='100px' width='100px'  fill="#641fed" xmlns="http://www.w3.org/2000/svg" xmlns:xlink="http://www.w3.org/1999/xlink" version="1.1" x="0px" y="0px" viewBox="0 0 512 512" enable-background="new 0 0 512 512" xml:space="preserve"><g><g><g><g><g><path d="M355.912,312.257c-19.135,0-38.457-3.856-56.875-11.772c-2.029-0.867-2.965-3.217-2.1-5.247       c0.875-2.029,3.217-2.95,5.254-2.092c51.316,22.047,110.055,10.695,149.645-28.901c25.723-25.728,39.9-59.855,39.9-96.104       c0-36.239-14.17-70.368-39.893-96.087c-25.732-25.728-59.865-39.897-96.104-39.897c-36.24,0-70.373,14.169-96.096,39.897       c-39.632,39.632-50.96,98.406-28.851,149.741c0.871,2.026-0.066,4.38-2.092,5.25c-2.022,0.871-4.384-0.059-5.254-2.088       c-23.409-54.36-11.417-116.597,30.544-158.555c27.239-27.238,63.37-42.239,101.749-42.239s74.516,15.001,101.756,42.239       c27.23,27.231,42.234,63.365,42.234,101.744s-15.004,74.514-42.242,101.752C429.781,297.611,393.213,312.257,355.912,312.257z"></path></g></g><g><g><path d="M203.122,375.711c-1.062,0-2.076-0.421-2.826-1.171l-50.878-50.886c-0.75-0.749-1.171-1.764-1.171-2.826V298.22       c0-1.062,0.421-2.077,1.171-2.826l62.182-62.182c1.562-1.561,4.091-1.561,5.652,0l73.486,73.487       c0.75,0.749,1.172,1.765,1.172,2.826s-0.422,2.076-1.172,2.826l-62.189,62.174c-0.75,0.75-1.765,1.171-2.822,1.171       l-22.602,0.016C203.122,375.711,203.122,375.711,203.122,375.711z M156.241,319.174l48.536,48.543l19.291-0.016l58.194-58.177       l-67.835-67.834l-58.185,58.185V319.174z"></path></g></g><g><g><path d="M254,347.45c-0.921,0-1.846-0.312-2.6-0.968l-79.143-67.842c-1.679-1.438-1.874-3.951-0.434-5.629       c1.437-1.679,3.962-1.866,5.633-0.43l79.143,67.842c1.678,1.437,1.874,3.95,0.434,5.629       C256.244,346.982,255.124,347.45,254,347.45z"></path></g></g><g><g><path d="M270.957,330.494c-0.922,0-1.844-0.312-2.6-0.969l-79.144-67.846c-1.678-1.437-1.874-3.958-0.433-5.633       c1.44-1.683,3.966-1.87,5.633-0.434l79.143,67.854c1.678,1.437,1.865,3.95,0.43,5.628       C273.205,330.025,272.08,330.494,270.957,330.494z"></path></g></g><g><g><path d="M237.039,364.407c-0.921,0-1.846-0.312-2.6-0.968l-79.143-67.843c-1.678-1.437-1.873-3.95-0.433-5.629       c1.437-1.679,3.962-1.866,5.633-0.429l79.143,67.842c1.678,1.437,1.873,3.95,0.433,5.629       C239.284,363.938,238.164,364.407,237.039,364.407z"></path></g></g><g><g><path d="M188.214,373.275c-7.826,0-16.117-4.324-24.666-12.881c-22.347-22.375-9.06-36.162-8.482-36.74       c1.561-1.561,4.091-1.561,5.652,0c1.546,1.546,1.562,4.045,0.043,5.605c-0.417,0.461-7.904,9.119,8.439,25.482       c16.465,16.473,25.135,8.774,25.494,8.447c1.588-1.483,4.106-1.452,5.625,0.125c1.51,1.576,1.518,4.027-0.023,5.574       c-0.398,0.397-4.079,3.902-10.688,4.34C189.147,373.26,188.683,373.275,188.214,373.275z"></path></g></g><g><g><path d="M256.794,418.072c-0.398,0-0.8-0.062-1.194-0.188c-1.417-0.438-2.475-1.64-2.74-3.092       c-3.361-18.533-12.272-44.68-21.555-44.781c-2.21-0.022-3.978-1.834-3.954-4.043c0.019-2.21,1.861-4.154,4.04-3.951       c15.648,0.172,24.303,28.762,27.773,43.797c46.408-50.721,20.131-87.905,19.85-88.288c-1.305-1.78-0.922-4.286,0.857-5.59       c1.781-1.319,4.279-0.913,5.59,0.858c0.328,0.453,32.447,45.835-25.84,104.105       C258.859,417.666,257.836,418.072,256.794,418.072z"></path></g></g><g><g><path d="M157.869,296.533c-2.19,0-3.974-1.764-3.998-3.95c-0.097-9.282-26.239-18.19-44.772-21.547       c-1.46-0.266-2.658-1.327-3.1-2.74c-0.444-1.421-0.062-2.975,0.988-4.021c58.271-58.283,103.665-26.177,104.113-25.849       c1.772,1.304,2.155,3.79,0.859,5.57c-1.3,1.784-3.794,2.174-5.578,0.886c-1.562-1.124-37.887-26.36-88.316,19.846       c15.04,3.466,43.637,12.124,43.801,27.761c0.023,2.218-1.749,4.021-3.954,4.044       C157.896,296.533,157.881,296.533,157.869,296.533z"></path></g></g><g><g><path d="M214.426,240.035c-1.026,0-2.049-0.39-2.83-1.175c-1.558-1.562-1.558-4.095,0.008-5.652l12.694-12.663       c1.565-1.554,4.095-1.562,5.652,0.008c1.557,1.562,1.557,4.095-0.008,5.652l-12.694,12.663       C216.468,239.645,215.449,240.035,214.426,240.035z"></path></g></g><g><g><path d="M287.912,313.521c-1.021,0-2.045-0.391-2.824-1.171c-1.562-1.562-1.562-4.091,0-5.652l12.709-12.694       c1.561-1.562,4.09-1.562,5.652,0c1.561,1.562,1.561,4.091,0,5.652l-12.711,12.694       C289.959,313.131,288.936,313.521,287.912,313.521z"></path></g></g><g><g><path d="M248.339,251.339c-1.022,0-2.045-0.39-2.826-1.171c-1.561-1.562-1.561-4.091,0-5.652l28.262-28.269       c1.561-1.562,4.09-1.562,5.652,0c1.561,1.562,1.561,4.091,0,5.652l-28.262,28.269       C250.385,250.949,249.362,251.339,248.339,251.339z"></path></g></g><g><g><path d="M276.602,279.608c-1.023,0-2.047-0.391-2.826-1.171c-1.562-1.562-1.562-4.092,0-5.652l28.268-28.27       c1.562-1.561,4.092-1.561,5.652,0c1.562,1.562,1.562,4.091,0,5.652l-28.268,28.27       C278.646,279.218,277.623,279.608,276.602,279.608z"></path></g></g><g><g><path d="M302.012,225.873c-0.141,0-0.289-0.008-0.436-0.023l-25.412-2.803c-2.193-0.242-3.779-2.217-3.537-4.411       c0.242-2.189,2.232-3.747,4.41-3.536l25.412,2.803c2.193,0.242,3.779,2.217,3.537,4.411       C305.76,224.358,304.027,225.873,302.012,225.873z"></path></g></g><g><g><path d="M304.869,251.339c-2.014,0-3.746-1.51-3.973-3.552l-2.857-25.466c-0.242-2.194,1.334-4.173,3.529-4.418       c2.209-0.219,4.176,1.339,4.418,3.528l2.857,25.466c0.242,2.194-1.336,4.173-3.529,4.418       C305.166,251.331,305.01,251.339,304.869,251.339z"></path></g></g><g><g><path d="M288.139,211.532c-1.021,0-2.045-0.39-2.826-1.171c-1.561-1.561-1.561-4.091,0-5.652l39.34-39.332       c1.561-1.562,4.092-1.562,5.652,0s1.561,4.091,0,5.652l-39.34,39.331C290.186,211.142,289.162,211.532,288.139,211.532z"></path></g></g><g><g><path d="M327.479,172.2c-1.023,0-2.045-0.39-2.826-1.171c-1.561-1.562-1.561-4.091,0-5.652       c2.264-2.268,3.514-5.277,3.514-8.482c0-3.201-1.25-6.21-3.514-8.471c-4.527-4.532-12.428-4.543-16.957-0.004       c-1.561,1.562-4.09,1.558-5.652,0.004c-1.561-1.561-1.561-4.091,0-5.656c3.771-3.775,8.791-5.855,14.131-5.855l0,0       c5.34,0,10.352,2.081,14.131,5.855c3.779,3.771,5.855,8.786,5.855,14.126c0,5.34-2.076,10.36-5.855,14.134       C329.523,171.81,328.502,172.2,327.479,172.2z"></path></g></g><g><g><path d="M304.869,172.2c-1.021,0-2.045-0.39-2.826-1.167c-3.777-3.778-5.863-8.798-5.863-14.134       c0-5.336,2.086-10.356,5.863-14.134c1.562-1.554,4.092-1.558,5.652,0.004c1.562,1.565,1.562,4.095,0,5.656       c-2.264,2.264-3.52,5.274-3.52,8.475s1.256,6.21,3.52,8.474c1.562,1.562,1.562,4.091,0,5.656       C306.916,171.81,305.893,172.2,304.869,172.2z"></path></g></g><g><g><path d="M316.408,239.801c-1.023,0-2.045-0.391-2.826-1.171c-1.561-1.562-1.561-4.091,0-5.652l39.332-39.339       c1.561-1.561,4.09-1.561,5.652,0c1.561,1.562,1.561,4.091,0,5.652l-39.332,39.339       C318.453,239.41,317.432,239.801,316.408,239.801z"></path></g></g><g><g><path d="M378.355,223.07c-1.021,0-2.045-0.391-2.826-1.171c-1.561-1.562-1.561-4.091,0-5.652       c4.678-4.672,4.678-12.28-0.008-16.957c-4.527-4.528-12.42-4.528-16.955,0c-1.562,1.561-4.092,1.561-5.652,0       c-1.562-1.562-1.562-4.091,0-5.652c7.791-7.792,20.477-7.792,28.268,0c7.785,7.795,7.785,20.474,0,28.261       C380.402,222.68,379.379,223.07,378.355,223.07z"></path></g></g><g><g><path d="M367.045,227.747c-5.115,0-10.236-1.952-14.131-5.847c-1.562-1.562-1.562-4.091,0-5.652       c1.561-1.562,4.09-1.562,5.652,0c4.676,4.676,12.287,4.676,16.963,0c1.562-1.562,4.092-1.562,5.652,0       c1.562,1.562,1.562,4.091,0,5.652C377.287,225.795,372.166,227.747,367.045,227.747z"></path></g></g><g><g><path d="M333.131,200.461c-1.023,0-2.045-0.39-2.826-1.171l-5.652-5.652c-1.561-1.561-1.561-4.091,0-5.652       c1.561-1.562,4.092-1.562,5.652,0l5.652,5.652c1.561,1.562,1.561,4.091,0,5.652       C335.176,200.071,334.154,200.461,333.131,200.461z"></path></g></g><g><g><path d="M290.738,95.833c-1.021,0-2.045-0.391-2.826-1.171c-1.561-1.562-1.561-4.091,0-5.652       c18.129-18.136,42.221-28.125,67.828-28.125c25.605,0,49.699,9.989,67.834,28.125c1.561,1.562,1.561,4.091,0,5.652       c-1.562,1.562-4.092,1.562-5.652,0C401.301,78.037,379.215,68.88,355.74,68.88c-23.469,0-45.555,9.157-62.176,25.782       C292.785,95.442,291.762,95.833,290.738,95.833z"></path></g></g></g><g><g><path d="M82.77,446.723c-2.01,0-3.278-0.851-3.989-1.561c-9.032-9.033,39.066-61.667,39.573-62.175      c6.035-6.042,16.566-6.042,22.609,0c6.229,6.229,6.229,16.379,0,22.608C140.553,406.002,94.555,446.723,82.77,446.723z       M129.659,386.298c-2.135,0-4.142,0.827-5.652,2.342c-5.781,5.777-30.474,36.192-37.134,48.435      c12.245-6.652,42.661-31.354,48.438-37.13c3.111-3.115,3.111-8.189,0-11.305C133.8,387.125,131.794,386.298,129.659,386.298z"></path></g></g><g><g><path d="M67.118,471.611c-4.712,0-8.396-1.288-10.945-3.841c-7.683-7.674-3.95-24.942,11.398-52.79      c11.472-20.813,26.489-41.611,33.824-48.949c7.549-7.558,17.585-11.711,28.261-11.711c10.68,0,20.716,4.153,28.265,11.711      c15.583,15.582,15.583,40.939,0,56.521C145.694,434.778,92.01,471.611,67.118,471.611z M129.655,362.314      c-8.541,0-16.57,3.326-22.609,9.369c-6.979,6.979-21.691,27.589-32.473,47.153c-14.696,26.669-16.055,39.979-12.749,43.281      c1,0.999,2.779,1.499,5.293,1.499c20.981,0,72.354-33.913,85.15-46.717c12.468-12.467,12.468-32.75,0-45.217      C146.229,365.641,138.2,362.314,129.655,362.314z"></path></g></g></g><g><g><path d="M416.025,455.857c-2.211,0-4.045-1.788-4.045-3.997c0-2.21,1.75-3.997,3.967-3.997h0.078     c2.201,0,3.996,1.787,3.996,3.997C420.021,454.069,418.227,455.857,416.025,455.857z"></path></g></g><g><g><path d="M88.254,8.177c-2.205,0-4.036-1.788-4.036-3.997s1.749-3.997,3.958-3.997h0.078c2.21,0,3.998,1.788,3.998,3.997     S90.464,8.177,88.254,8.177z"></path></g></g><g><g><path d="M240.146,24.166c-2.205,0-4.036-1.788-4.036-3.998c0-2.209,1.749-3.997,3.958-3.997h0.078     c2.21,0,3.997,1.788,3.997,3.997C244.143,22.378,242.356,24.166,240.146,24.166z"></path></g></g><g><g><path d="M16.306,104.108c-2.206,0-4.036-1.788-4.036-3.997c0-2.209,1.749-3.997,3.958-3.997h0.078     c2.209,0,3.997,1.788,3.997,3.997C20.303,102.32,18.515,104.108,16.306,104.108z"></path></g></g><g><g><path d="M72.266,335.943c-2.206,0-4.036-1.788-4.036-3.998c0-2.209,1.749-3.997,3.958-3.997h0.078     c2.209,0,3.997,1.788,3.997,3.997C76.263,334.155,74.476,335.943,72.266,335.943z"></path></g></g><g><g><path d="M271.705,503.823c-2.209,0-4.043-1.788-4.043-3.997c0-2.21,1.748-3.997,3.965-3.997h0.078     c2.203,0,3.998,1.787,3.998,3.997C275.703,502.035,273.908,503.823,271.705,503.823z"></path></g></g><g><g><path d="M463.99,511.817c-2.209,0-4.043-1.788-4.043-3.997s1.748-3.997,3.965-3.997h0.078c2.201,0,3.998,1.788,3.998,3.997     S466.191,511.817,463.99,511.817z"></path></g></g><g><g><path d="M344.076,359.926c-2.209,0-4.045-1.788-4.045-3.997c0-2.21,1.75-3.997,3.967-3.997h0.078     c2.201,0,3.998,1.787,3.998,3.997C348.074,358.138,346.277,359.926,344.076,359.926z"></path></g></g><g><g><path d="M479.979,335.943c-2.209,0-4.043-1.788-4.043-3.998c0-2.209,1.748-3.997,3.965-3.997h0.078     c2.201,0,3.998,1.788,3.998,3.997C483.977,334.155,482.18,335.943,479.979,335.943z"></path></g></g><g><g><path d="M400.037,431.875c-2.211,0-4.045-1.788-4.045-3.998c0-2.209,1.748-3.997,3.967-3.997h0.078     c2.201,0,3.996,1.788,3.996,3.997C404.033,430.087,402.238,431.875,400.037,431.875z"></path></g></g><g><g><path d="M419.779,471.846c-22.039,0-39.971-17.933-39.971-39.971c0-22.039,17.932-39.973,39.971-39.973     s39.973,17.934,39.973,39.973C459.752,453.913,441.818,471.846,419.779,471.846z M419.779,399.897     c-17.635,0-31.977,14.349-31.977,31.978c0,17.627,14.342,31.977,31.977,31.977c17.637,0,31.979-14.35,31.979-31.977     C451.758,414.246,437.416,399.897,419.779,399.897z"></path></g></g><g><g><path d="M431.771,431.875c-6.613,0-11.992-5.38-11.992-11.992s5.379-11.991,11.992-11.991s11.992,5.379,11.992,11.991     S438.385,431.875,431.771,431.875z M431.771,415.886c-2.209,0-3.998,1.796-3.998,3.997s1.789,3.997,3.998,3.997     s3.996-1.796,3.996-3.997S433.98,415.886,431.771,415.886z"></path></g></g><g><g><g><path d="M319.852,463.852c-2.209,0-3.998-1.788-3.998-3.997v-31.978c0-2.209,1.789-3.997,3.998-3.997s3.996,1.788,3.996,3.997      v31.978C323.848,462.063,322.061,463.852,319.852,463.852z"></path></g></g><g><g><path d="M327.846,447.863h-15.988c-2.209,0-3.998-1.788-3.998-3.997c0-2.21,1.789-3.997,3.998-3.997h15.988      c2.209,0,3.996,1.787,3.996,3.997C331.842,446.075,330.055,447.863,327.846,447.863z"></path></g></g></g><g><g><g><path d="M183.948,495.829c-2.209,0-3.997-1.788-3.997-3.997v-31.978c0-2.21,1.788-3.997,3.997-3.997      c2.21,0,3.998,1.787,3.998,3.997v31.978C187.945,494.041,186.158,495.829,183.948,495.829z"></path></g></g><g><g><path d="M191.942,479.84h-15.989c-2.209,0-3.997-1.787-3.997-3.997c0-2.209,1.788-3.997,3.997-3.997h15.989      c2.209,0,3.997,1.788,3.997,3.997C195.939,478.053,194.152,479.84,191.942,479.84z"></path></g></g></g><g><g><g><path d="M183.948,72.131c-2.209,0-3.997-1.787-3.997-3.997V36.157c0-2.21,1.788-3.998,3.997-3.998      c2.21,0,3.998,1.788,3.998,3.998v31.977C187.945,70.344,186.158,72.131,183.948,72.131z"></path></g></g><g><g><path d="M191.942,56.143h-15.989c-2.209,0-3.997-1.788-3.997-3.997c0-2.209,1.788-3.997,3.997-3.997h15.989      c2.209,0,3.997,1.788,3.997,3.997C195.939,54.354,194.152,56.143,191.942,56.143z"></path></g></g></g><g><g><g><path d="M40.051,256c-2.209,0-3.997-1.788-3.997-3.997v-31.978c0-2.209,1.788-3.997,3.997-3.997s3.997,1.788,3.997,3.997v31.978      C44.048,254.212,42.26,256,40.051,256z"></path></g></g><g><g><path d="M48.045,240.012H32.057c-2.209,0-3.998-1.788-3.998-3.998s1.788-3.997,3.998-3.997h15.989      c2.209,0,3.997,1.788,3.997,3.997S50.254,240.012,48.045,240.012z"></path></g></g></g><g><g><path d="M112,168.062c-7.475,0-14.501-2.912-19.783-8.197c-5.286-5.285-8.197-12.312-8.197-19.786     c0-7.472,2.912-14.498,8.197-19.779c10.563-10.57,29.002-10.57,39.565,0c5.286,5.281,8.197,12.308,8.197,19.779     c0,7.475-2.912,14.501-8.197,19.786C126.5,165.15,119.475,168.062,112,168.062z M112,120.097c-5.336,0-10.356,2.081-14.131,5.855     c-3.774,3.774-5.855,8.791-5.855,14.127c0,5.34,2.081,10.359,5.855,14.134c7.55,7.55,20.712,7.55,28.261,0     c3.775-3.774,5.855-8.794,5.855-14.134c0-5.336-2.08-10.353-5.855-14.127C122.355,122.178,117.335,120.097,112,120.097z"></path></g></g><g><g><path d="M91.346,167.36c-1.858,0-3.494-0.551-4.786-1.843c-1.561-1.562-1.561-4.091,0-5.652c1.386-1.386,3.529-1.538,5.094-0.468     c2.561-0.148,11.651-4.973,23.171-16.488c11.515-11.519,16.34-20.614,16.488-23.175c-1.074-1.557-0.917-3.708,0.468-5.094     c1.561-1.561,4.091-1.561,5.652,0c8.069,8.068-12.709,29.674-16.956,33.921C116.91,152.129,101.097,167.36,91.346,167.36z"></path></g></g></g></svg>