<svg height='100px' width='100px'  fill="#641fed" xmlns="http://www.w3.org/2000/svg" xmlns:xlink="http://www.w3.org/1999/xlink" version="1.1" x="0px" y="0px" viewBox="0 0 66 66" style="enable-background:new 0 0 66 66;" xml:space="preserve">
<g><path class="st0" d="M65,0.3H1C0.6,0.3,0.3,0.6,0.3,1v64c0,0.4,0.3,0.8,0.8,0.8h64c0.4,0,0.8-0.3,0.8-0.8V1   C65.8,0.6,65.4,0.3,65,0.3z M64.3,1.8v12.8H1.8V1.8H64.3z M1.8,64.3V16.1h62.5v48.2H1.8z"></path><path class="st0" d="M7,11.8h6c0.4,0,0.8-0.3,0.8-0.8v-6c0-0.4-0.3-0.8-0.8-0.8H7c-0.4,0-0.8,0.3-0.8,0.8v6   C6.3,11.5,6.6,11.8,7,11.8z M7.8,5.8h4.5v4.5H7.8V5.8z"></path><path class="st0" d="M18.7,11.8h6c0.4,0,0.8-0.3,0.8-0.8v-6c0-0.4-0.3-0.8-0.8-0.8h-6c-0.4,0-0.8,0.3-0.8,0.8v6   C17.9,11.5,18.3,11.8,18.7,11.8z M19.4,5.8h4.5v4.5h-4.5V5.8z"></path><path class="st0" d="M32.9,8.8H59c0.4,0,0.8-0.3,0.8-0.8S59.4,7.3,59,7.3H32.9c-0.4,0-0.8,0.3-0.8,0.8   S32.5,8.8,32.9,8.8z"></path><path class="st0" d="M26.9,34.8c0.3,0.3,0.8,0.3,1.1,0c0.3-0.3,0.3-0.8,0-1.1l-5.2-5.2l5.2-5.2   c0.3-0.3,0.3-0.8,0-1.1s-0.8-0.3-1.1,0L21.1,28c-0.3,0.3-0.3,0.8,0,1.1L26.9,34.8z"></path><path class="st0" d="M38.1,34.8c0.3,0.3,0.8,0.3,1.1,0l5.7-5.7c0.3-0.3,0.3-0.8,0-1.1l-5.7-5.7   c-0.3-0.3-0.8-0.3-1.1,0s-0.3,0.8,0,1.1l5.2,5.2l-5.2,5.2C37.8,34,37.8,34.5,38.1,34.8z"></path><path class="st0" d="M30.5,37c0.4,0.1,0.8-0.1,0.9-0.5l4.7-15.7c0.1-0.4-0.1-0.8-0.5-0.9   c-0.4-0.1-0.8,0.1-0.9,0.5l-4.7,15.7C29.8,36.5,30.1,36.9,30.5,37z"></path><path class="st0" d="M8,44.9h9.3c0.4,0,0.8-0.3,0.8-0.8s-0.3-0.8-0.8-0.8H8c-0.4,0-0.8,0.3-0.8,0.8   S7.6,44.9,8,44.9z"></path><path class="st0" d="M21.4,44.9h3.3c0.4,0,0.8-0.3,0.8-0.8s-0.3-0.8-0.8-0.8h-3.3c-0.4,0-0.8,0.3-0.8,0.8   S21,44.9,21.4,44.9z"></path><path class="st0" d="M28.8,44.9h5.9c0.4,0,0.8-0.3,0.8-0.8s-0.3-0.8-0.8-0.8h-5.9c-0.4,0-0.8,0.3-0.8,0.8   S28.4,44.9,28.8,44.9z"></path><path class="st0" d="M38,44.2c0,0.4,0.3,0.8,0.8,0.8h10.2c0.4,0,0.8-0.3,0.8-0.8s-0.3-0.8-0.8-0.8H38.7   C38.3,43.4,38,43.8,38,44.2z"></path><path class="st0" d="M58,43.4h-5c-0.4,0-0.8,0.3-0.8,0.8s0.3,0.8,0.8,0.8h5c0.4,0,0.8-0.3,0.8-0.8   S58.4,43.4,58,43.4z"></path><path class="st0" d="M58,50.3h-9.3c-0.4,0-0.8,0.3-0.8,0.8s0.3,0.8,0.8,0.8H58c0.4,0,0.8-0.3,0.8-0.8   S58.4,50.3,58,50.3z"></path><path class="st0" d="M41.3,50.3c-0.4,0-0.8,0.3-0.8,0.8s0.3,0.8,0.8,0.8h3.3c0.4,0,0.8-0.3,0.8-0.8   s-0.3-0.8-0.8-0.8H41.3z"></path><path class="st0" d="M37.2,50.3h-5.9c-0.4,0-0.8,0.3-0.8,0.8s0.3,0.8,0.8,0.8h5.9c0.4,0,0.8-0.3,0.8-0.8   S37.6,50.3,37.2,50.3z"></path><path class="st0" d="M27.3,51.8c0.4,0,0.8-0.3,0.8-0.8s-0.3-0.8-0.8-0.8H17.1c-0.4,0-0.8,0.3-0.8,0.8   s0.3,0.8,0.8,0.8H27.3z"></path><path class="st0" d="M8,51.8h5c0.4,0,0.8-0.3,0.8-0.8s-0.3-0.8-0.8-0.8H8c-0.4,0-0.8,0.3-0.8,0.8S7.6,51.8,8,51.8   z"></path><path class="st0" d="M13.3,57.2H8c-0.4,0-0.8,0.3-0.8,0.8s0.3,0.8,0.8,0.8h5.3c0.4,0,0.8-0.3,0.8-0.8   S13.7,57.2,13.3,57.2z"></path><path class="st0" d="M22.7,57.2h-5.3c-0.4,0-0.8,0.3-0.8,0.8s0.3,0.8,0.8,0.8h5.3c0.4,0,0.8-0.3,0.8-0.8   S23.1,57.2,22.7,57.2z"></path><path class="st0" d="M34.6,57.2h-7.9c-0.4,0-0.8,0.3-0.8,0.8s0.3,0.8,0.8,0.8h7.9c0.4,0,0.8-0.3,0.8-0.8   S35,57.2,34.6,57.2z"></path><path class="st0" d="M44.9,57.2h-6.2c-0.4,0-0.8,0.3-0.8,0.8s0.3,0.8,0.8,0.8h6.2c0.4,0,0.8-0.3,0.8-0.8   S45.3,57.2,44.9,57.2z"></path><path class="st0" d="M58,57.2h-9c-0.4,0-0.8,0.3-0.8,0.8s0.3,0.8,0.8,0.8h9c0.4,0,0.8-0.3,0.8-0.8   S58.4,57.2,58,57.2z"></path></g></svg>