<svg height='100px' width='100px'  fill="#641fed" xmlns="http://www.w3.org/2000/svg" xmlns:xlink="http://www.w3.org/1999/xlink" version="1.1" x="0px" y="0px" viewBox="0 0 520 520" style="enable-background:new 0 0 520 520;" xml:space="preserve"><g><g><path d="M478.535,82.646l-32.43-32.43c-1.951-1.952-5.118-1.952-7.07,0c-5.037,5.037,6.589-6.588-40.538,40.538    c-0.001,0-0.001,0.001-0.001,0.001l-36.777,36.777c-33.881-25.386-74.138-38.78-116.719-38.78c-107.523,0-195,87.476-195,195.001    c0,107.523,87.477,195,195,195s195-87.477,195-195c0-42.581-13.395-82.838-38.78-116.72l36.777-36.777    c0.001,0,0.001-0.001,0.001-0.001l16.215-16.215v0l24.322-24.322C480.488,87.765,480.488,84.599,478.535,82.646z M434.463,119.647    l-25.359-25.358l9.144-9.144l25.359,25.358L434.463,119.647z M283.485,270.625l-3.056-15.232l93.105-93.106    c1.953-1.953,1.953-5.119,0-7.071c-1.951-1.952-5.119-1.952-7.07,0l-93.106,93.106l-15.231-3.056L402.033,101.36l25.358,25.358    L283.485,270.625z M270.753,257.999l3.896,19.416l-34.968,11.655l11.656-34.967L270.753,257.999z M243.418,246.319    c-0.189,0.437-13.414,40.173-16.387,49.076c-1.077,3.229,1.329,6.581,4.744,6.581c1.534,0-0.992,0.504,50.226-16.472    c0.42-0.142,0.921-0.388,1.318-0.681c0.58-0.413-0.233,0.342,10.753-10.645c6.023,31.023-17.826,59.572-49.072,59.572    c-27.57,0-50-22.43-50-50c0-31.279,28.585-55.095,59.571-49.073C243.935,245.36,243.98,245.047,243.418,246.319z M262.798,226.452    C224.12,214.436,185,243.527,185,283.752c0,33.084,26.916,60,60,60c40.185,0,69.331-39.078,57.299-77.799l26.664-26.664    C336.198,252.932,340,268.176,340,283.752c0,52.383-42.617,95-95,95c-52.383,0-95-42.617-95-95c0-52.384,42.617-95.001,95-95.001    c15.575,0,30.818,3.802,44.461,11.038L262.798,226.452z M296.824,192.426c-15.755-8.955-33.585-13.675-51.824-13.675    c-57.897,0-105,47.103-105,105.001c0,57.896,47.103,105,105,105c57.897,0,105-47.104,105-105c0-18.24-4.72-36.072-13.675-51.826    l25.431-25.431C376.978,229.427,385,256.009,385,283.752c0,77.196-62.804,140-140,140s-140-62.804-140-140    c0-77.197,62.804-140.001,140-140.001c27.742,0,54.325,8.021,77.255,23.244L296.824,192.426z M430,283.752    c0,102.009-82.99,185-185,185c-102.009,0-185-82.991-185-185c0-102.01,82.991-185.001,185-185.001    c39.913,0,77.669,12.41,109.566,35.933l-25.107,25.107c-24.949-17.046-54.055-26.04-84.459-26.04c-82.71,0-150,67.29-150,150.001    c0,82.71,67.29,150,150,150c82.71,0,150-67.29,150-150c0-30.404-8.993-59.51-26.04-84.46l25.107-25.107    C417.591,206.083,430,243.839,430,283.752z M450.678,103.433l-25.359-25.358l17.252-17.251l25.358,25.359L450.678,103.433z"></path><path d="M70,428.752c-13.785,0-25,11.215-25,25c0,13.785,11.215,25,25,25s25-11.215,25-25C95,439.967,83.785,428.752,70,428.752z     M70,468.752c-8.271,0-15-6.73-15-15c0-8.272,6.729-15,15-15s15,6.728,15,15C85,462.022,78.271,468.752,70,468.752z"></path><path d="M447.5,393.752c-9.649,0-17.5,7.85-17.5,17.5c0,9.649,7.851,17.5,17.5,17.5c9.649,0,17.5-7.851,17.5-17.5    C465,401.603,457.149,393.752,447.5,393.752z M447.5,418.752c-4.136,0-7.5-3.364-7.5-7.5c0-4.136,3.364-7.5,7.5-7.5    c4.136,0,7.5,3.364,7.5,7.5C455,415.388,451.636,418.752,447.5,418.752z"></path><path d="M357.5,98.752c17.921,0,32.5-14.58,32.5-32.5s-14.579-32.5-32.5-32.5s-32.5,14.58-32.5,32.5S339.579,98.752,357.5,98.752z     M357.5,43.751c12.406,0,22.5,10.093,22.5,22.5c0,12.407-10.094,22.5-22.5,22.5c-12.406,0-22.5-10.093-22.5-22.5    C335,53.845,345.094,43.751,357.5,43.751z"></path><circle cx="160" cy="56.25" r="7.5"></circle><circle cx="52.5" cy="131.25" r="7.5"></circle><circle cx="132.5" cy="473.75" r="7.5"></circle><circle cx="467.5" cy="341.25" r="7.5"></circle><circle cx="392.5" cy="471.25" r="7.5"></circle><circle cx="447.5" cy="186.25" r="7.5"></circle></g></g></svg>