<svg height='100px' width='100px'  fill="#641fed" xmlns="http://www.w3.org/2000/svg" viewBox="0 0 64 64" x="0px" y="0px"><g data-name="Source code"><path d="M57,2H7A5.006,5.006,0,0,0,2,7V57a5.006,5.006,0,0,0,5,5H57a5.006,5.006,0,0,0,5-5V7A5.006,5.006,0,0,0,57,2ZM7,4H57a3,3,0,0,1,3,3v3H4V7A3,3,0,0,1,7,4ZM57,60H7a3,3,0,0,1-3-3V12H60V57A3,3,0,0,1,57,60Z"></path><rect x="6" y="6" width="2" height="2"></rect><rect x="10" y="6" width="2" height="2"></rect><rect x="14" y="6" width="2" height="2"></rect><path d="M11,56a1,1,0,0,1-1-1V17a1,1,0,0,1,2,0V55A1,1,0,0,1,11,56Z"></path><path d="M20,24a1,1,0,0,1-.707-.293l-3-3a1,1,0,0,1,0-1.414l3-3a1,1,0,0,1,1.414,1.414L18.414,20l2.293,2.293A1,1,0,0,1,20,24Z"></path><path d="M28,24a1,1,0,0,1-.707-1.707L29.586,20l-2.293-2.293a1,1,0,0,1,1.414-1.414l3,3a1,1,0,0,1,0,1.414l-3,3A1,1,0,0,1,28,24Z"></path><path d="M23,25a.968.968,0,0,1-.243-.03,1,1,0,0,1-.728-1.213l2-8a1,1,0,0,1,1.94.486l-2,8A1,1,0,0,1,23,25Z"></path><rect x="19" y="29" width="4" height="2"></rect><rect x="25" y="29" width="6" height="2"></rect><rect x="23" y="33" width="19" height="2"></rect><rect x="45" y="33" width="9" height="2"></rect><rect x="23" y="37" width="2" height="2"></rect><rect x="27" y="37" width="18" height="2"></rect><rect x="47" y="37" width="7" height="2"></rect><rect x="19" y="41" width="4" height="2"></rect><rect x="25" y="41" width="6" height="2"></rect><rect x="23" y="45" width="19" height="2"></rect><rect x="45" y="45" width="9" height="2"></rect><rect x="23" y="49" width="11" height="2"></rect><rect x="36" y="49" width="2" height="2"></rect><rect x="42" y="49" width="8" height="2"></rect><rect x="19" y="54" width="4" height="2"></rect><rect x="25" y="54" width="6" height="2"></rect></g></svg>